<svg width="265" height="94" viewBox="0 0 265 94" fill="none" xmlns="http://www.w3.org/2000/svg">
<path fill-rule="evenodd" clip-rule="evenodd" d="M246.698 0.981445C256.639 0.981445 264.698 9.04032 264.698 18.9814V51.5258C264.698 61.4669 256.639 69.5258 246.698 69.5258H54.4516L30.1385 93.8389V69.5258H18.0002C8.05902 69.5258 0.000152588 61.4669 0.000152588 51.5258V18.9814C0.000152588 9.04032 8.05905 0.981445 18.0002 0.981445H246.698Z" fill="white"/>
<path d="M41.1499 37.2754H39.2778V35.9482H40.8247C41.3345 35.9482 41.7446 35.8721 42.0552 35.7197C42.3657 35.5674 42.5942 35.3535 42.7407 35.0781C42.8872 34.7969 42.9604 34.4717 42.9604 34.1025C42.9604 33.7861 42.8784 33.4932 42.7144 33.2236C42.5562 32.9541 42.3101 32.7402 41.9761 32.582C41.6421 32.4238 41.2144 32.3447 40.6929 32.3447C40.3003 32.3447 39.9429 32.415 39.6206 32.5557C39.2983 32.6904 39.0435 32.8867 38.856 33.1445C38.6685 33.3965 38.5747 33.6982 38.5747 34.0498H36.1577C36.1577 33.4873 36.2778 32.9863 36.5181 32.5469C36.7583 32.1016 37.0864 31.7236 37.5024 31.4131C37.9243 31.0967 38.4077 30.8564 38.9526 30.6924C39.5034 30.5283 40.0835 30.4463 40.6929 30.4463C41.4019 30.4463 42.0435 30.5254 42.6177 30.6836C43.1978 30.8359 43.6929 31.0645 44.103 31.3691C44.5132 31.6738 44.8267 32.0518 45.0435 32.5029C45.2661 32.9541 45.3774 33.4785 45.3774 34.0762C45.3774 34.5156 45.2778 34.9287 45.0786 35.3154C44.8794 35.7021 44.5923 36.042 44.2173 36.335C43.8481 36.6279 43.4028 36.8594 42.8813 37.0293C42.3657 37.1934 41.7886 37.2754 41.1499 37.2754ZM39.2778 36.5107H41.1499C41.853 36.5107 42.4771 36.584 43.022 36.7305C43.5728 36.877 44.0356 37.0908 44.4106 37.3721C44.7915 37.6533 45.0815 38.002 45.2808 38.418C45.48 38.8281 45.5796 39.2998 45.5796 39.833C45.5796 40.4307 45.4595 40.9609 45.2192 41.4238C44.979 41.8867 44.6392 42.2793 44.1997 42.6016C43.7661 42.9238 43.2505 43.167 42.6528 43.3311C42.0552 43.4951 41.4019 43.5771 40.6929 43.5771C40.1187 43.5771 39.5503 43.5068 38.9878 43.3662C38.4312 43.2197 37.9243 42.9971 37.4673 42.6982C37.0161 42.3994 36.6528 42.0156 36.3774 41.5469C36.1079 41.0781 35.9731 40.5156 35.9731 39.8594H38.3989C38.3989 40.1992 38.4956 40.5098 38.689 40.791C38.8823 41.0664 39.1519 41.2861 39.4976 41.4502C39.8433 41.6084 40.2417 41.6875 40.6929 41.6875C41.2144 41.6875 41.6567 41.6084 42.02 41.4502C42.3892 41.2861 42.6704 41.0605 42.8638 40.7734C43.0571 40.4863 43.1538 40.167 43.1538 39.8154C43.1538 39.458 43.104 39.1533 43.0044 38.9014C42.9048 38.6494 42.7554 38.4443 42.5562 38.2861C42.3628 38.1221 42.1196 38.002 41.8267 37.9258C41.5396 37.8496 41.2056 37.8115 40.8247 37.8115H39.2778V36.5107ZM56.0825 35.8955V37.7939H49.3501V35.8955H56.0825ZM50.0093 30.6133V43.4102H47.5923V30.6133H50.0093ZM57.8755 30.6133V43.4102H55.4585V30.6133H57.8755ZM65.5835 32.5557L61.936 43.4102H59.3784L64.1597 30.6133H65.7944L65.5835 32.5557ZM68.6333 43.4102L64.9683 32.5557L64.7485 30.6133H66.3921L71.1997 43.4102H68.6333ZM68.4663 38.6553V40.5625H61.6021V38.6553H68.4663ZM72.0522 30.6133H74.478V34.5596C74.478 35.1455 74.5659 35.6025 74.7417 35.9307C74.9233 36.2588 75.1958 36.4902 75.5591 36.625C75.9224 36.7598 76.3735 36.8271 76.9126 36.8271C77.147 36.8271 77.4048 36.8154 77.686 36.792C77.9731 36.7686 78.2632 36.7393 78.5562 36.7041C78.855 36.6631 79.1392 36.6133 79.4087 36.5547C79.6841 36.4961 79.9243 36.4316 80.1294 36.3613V38.2686C79.9243 38.333 79.687 38.3945 79.4175 38.4531C79.1538 38.5117 78.8755 38.5615 78.5825 38.6025C78.2954 38.6436 78.0054 38.6758 77.7124 38.6992C77.4253 38.7168 77.1587 38.7256 76.9126 38.7256C75.9224 38.7256 75.061 38.582 74.3286 38.2949C73.6021 38.0078 73.0396 37.5596 72.6411 36.9502C72.2485 36.335 72.0522 35.5381 72.0522 34.5596V30.6133ZM79.6021 30.6133H82.0278V43.4102H79.6021V30.6133ZM86.853 39.543L92.2583 30.6133H94.6841V43.4102H92.2583V34.4805L86.853 43.4102H84.436V30.6133H86.853V39.543ZM102.375 30.6133V43.4102H99.9663V30.6133H102.375ZM106.347 30.6133V32.5205H96.0376V30.6133H106.347ZM114.363 39.543L119.768 30.6133H122.194V43.4102H119.768V34.4805L114.363 43.4102H111.946V30.6133H114.363V39.543ZM142.11 35.8955V37.7939H135.377V35.8955H142.11ZM136.037 30.6133V43.4102H133.62V30.6133H136.037ZM143.903 30.6133V43.4102H141.486V30.6133H143.903ZM151.611 32.5557L147.963 43.4102H145.406L150.187 30.6133H151.822L151.611 32.5557ZM154.661 43.4102L150.996 32.5557L150.776 30.6133H152.419L157.227 43.4102H154.661ZM154.494 38.6553V40.5625H147.629V38.6553H154.494ZM165.875 39.2002H168.292C168.228 40.0557 167.991 40.8145 167.581 41.4766C167.17 42.1328 166.599 42.6484 165.867 43.0234C165.134 43.3984 164.247 43.5859 163.204 43.5859C162.401 43.5859 161.677 43.4453 161.033 43.1641C160.394 42.877 159.846 42.4697 159.389 41.9424C158.938 41.4092 158.592 40.7705 158.352 40.0264C158.112 39.2764 157.992 38.4355 157.992 37.5039V36.5283C157.992 35.5967 158.115 34.7559 158.361 34.0059C158.607 33.2559 158.958 32.6172 159.416 32.0898C159.878 31.5566 160.432 31.1465 161.077 30.8594C161.727 30.5723 162.454 30.4287 163.256 30.4287C164.299 30.4287 165.181 30.6221 165.902 31.0088C166.623 31.3896 167.182 31.9141 167.581 32.582C167.979 33.25 168.219 34.0176 168.301 34.8848H165.884C165.837 34.3457 165.72 33.8887 165.533 33.5137C165.351 33.1387 165.076 32.8545 164.707 32.6611C164.343 32.4619 163.86 32.3623 163.256 32.3623C162.788 32.3623 162.375 32.4502 162.017 32.626C161.666 32.8018 161.373 33.0654 161.138 33.417C160.904 33.7627 160.728 34.1963 160.611 34.7178C160.494 35.2334 160.435 35.8311 160.435 36.5107V37.5039C160.435 38.1543 160.488 38.7373 160.593 39.2529C160.699 39.7686 160.863 40.2051 161.085 40.5625C161.308 40.9199 161.595 41.1924 161.947 41.3799C162.298 41.5674 162.717 41.6611 163.204 41.6611C163.795 41.6611 164.276 41.5674 164.645 41.3799C165.02 41.1924 165.304 40.917 165.498 40.5537C165.697 40.1904 165.823 39.7393 165.875 39.2002ZM179.701 30.6133V43.4102H177.292V30.6133H179.701ZM183.673 30.6133V32.5205H173.364V30.6133H183.673ZM195.398 36.6865V37.3457C195.398 38.3125 195.269 39.1826 195.011 39.9561C194.753 40.7236 194.387 41.377 193.913 41.916C193.438 42.4551 192.873 42.8682 192.216 43.1553C191.56 43.4424 190.831 43.5859 190.028 43.5859C189.237 43.5859 188.51 43.4424 187.848 43.1553C187.192 42.8682 186.624 42.4551 186.143 41.916C185.663 41.377 185.291 40.7236 185.027 39.9561C184.763 39.1826 184.631 38.3125 184.631 37.3457V36.6865C184.631 35.7139 184.763 34.8438 185.027 34.0762C185.291 33.3086 185.66 32.6553 186.134 32.1162C186.609 31.5713 187.174 31.1553 187.831 30.8682C188.493 30.5811 189.219 30.4375 190.01 30.4375C190.813 30.4375 191.542 30.5811 192.199 30.8682C192.855 31.1553 193.42 31.5713 193.895 32.1162C194.375 32.6553 194.745 33.3086 195.002 34.0762C195.266 34.8438 195.398 35.7139 195.398 36.6865ZM192.955 37.3457V36.6689C192.955 35.9717 192.89 35.3594 192.761 34.832C192.632 34.2988 192.442 33.8506 192.19 33.4873C191.938 33.124 191.627 32.8516 191.258 32.6699C190.889 32.4824 190.473 32.3887 190.01 32.3887C189.542 32.3887 189.125 32.4824 188.762 32.6699C188.405 32.8516 188.1 33.124 187.848 33.4873C187.596 33.8506 187.403 34.2988 187.268 34.832C187.139 35.3594 187.075 35.9717 187.075 36.6689V37.3457C187.075 38.0371 187.139 38.6494 187.268 39.1826C187.403 39.7158 187.596 40.167 187.848 40.5361C188.106 40.8994 188.417 41.1748 188.78 41.3623C189.143 41.5498 189.559 41.6436 190.028 41.6436C190.497 41.6436 190.913 41.5498 191.276 41.3623C191.639 41.1748 191.944 40.8994 192.19 40.5361C192.442 40.167 192.632 39.7158 192.761 39.1826C192.89 38.6494 192.955 38.0371 192.955 37.3457ZM201.234 38.0049L196.417 30.6133H199.397L202.394 35.8867H204.653L204.328 38.0049H201.234ZM202.403 37.6621L199.212 43.4102H196.198L200.522 36.1504L202.403 37.6621ZM206.156 30.6133V43.4102H203.748V30.6133H206.156ZM213.389 30.6133L208.625 38.0049H205.558L205.233 35.8867H207.465L210.401 30.6133H213.389ZM210.594 43.4102L207.465 37.6621L209.355 36.1504L213.609 43.4102H210.594ZM223.347 41.5117V43.4102H216.544V41.5117H223.347ZM217.283 30.6133V43.4102H214.866V30.6133H217.283ZM222.459 35.8955V37.75H216.544V35.8955H222.459ZM223.321 30.6133V32.5205H216.544V30.6133H223.321ZM227.496 30.6133L227.241 39.5693H225.281L225.026 30.6133H227.496ZM224.956 42.3291C224.956 41.9834 225.073 41.6934 225.307 41.459C225.547 41.2188 225.87 41.0986 226.274 41.0986C226.678 41.0986 226.998 41.2188 227.232 41.459C227.472 41.6934 227.592 41.9834 227.592 42.3291C227.592 42.6689 227.472 42.9561 227.232 43.1904C226.998 43.4248 226.678 43.542 226.274 43.542C225.87 43.542 225.547 43.4248 225.307 43.1904C225.073 42.9561 224.956 42.6689 224.956 42.3291Z" fill="black"/>
</svg>
