<svg width="368" height="127" viewBox="0 0 368 127" fill="none" xmlns="http://www.w3.org/2000/svg">
<path fill-rule="evenodd" clip-rule="evenodd" d="M28.0835 0C12.6195 0 0.0834961 12.536 0.0834961 28V64.0898C0.0834961 79.5537 12.6195 92.0898 28.0835 92.0898H277.495L312.243 126.838V92.0898H339.312C354.776 92.0898 367.312 79.5538 367.312 64.0898V28C367.312 12.536 354.776 0 339.312 0H28.0835Z" fill="white"/>
<path d="M51.8628 39.0859V51.8828H49.4458V39.0859H51.8628ZM59.4829 39.0859L54.4292 46.4863H51.2563L50.9399 44.3594H53.1196L56.5386 39.0859H59.4829ZM56.9956 51.8828L53.1372 46.0996L54.7632 44.3154L59.8872 51.8828H56.9956ZM66.1274 41.0283L62.48 51.8828H59.9224L64.7036 39.0859H66.3384L66.1274 41.0283ZM69.1772 51.8828L65.5122 41.0283L65.2925 39.0859H66.936L71.7437 51.8828H69.1772ZM69.0103 47.1279V49.0352H62.146V47.1279H69.0103ZM75.5054 39.0859V51.8828H73.0884V39.0859H75.5054ZM83.1255 39.0859L78.0718 46.4863H74.8989L74.5825 44.3594H76.7622L80.1812 39.0859H83.1255ZM80.6382 51.8828L76.7798 46.0996L78.4058 44.3154L83.5298 51.8828H80.6382ZM93.145 46.4775L88.3286 39.0859H91.3081L94.3052 44.3594H96.564L96.2388 46.4775H93.145ZM94.314 46.1348L91.1235 51.8828H88.1089L92.4331 44.623L94.314 46.1348ZM98.0669 39.0859V51.8828H95.6587V39.0859H98.0669ZM105.3 39.0859L100.537 46.4775H97.4692L97.144 44.3594H99.3765L102.312 39.0859H105.3ZM102.505 51.8828L99.3765 46.1348L101.266 44.623L105.52 51.8828H102.505ZM115.258 49.9844V51.8828H108.456V49.9844H115.258ZM109.194 39.0859V51.8828H106.777V39.0859H109.194ZM114.371 44.3682V46.2227H108.456V44.3682H114.371ZM115.232 39.0859V40.9932H108.456V39.0859H115.232ZM122.474 39.0859H124.566L128.064 48.7188L131.553 39.0859H133.654L128.899 51.8828H127.22L122.474 39.0859ZM121.419 39.0859H123.467L123.836 47.9365V51.8828H121.419V39.0859ZM132.652 39.0859H134.708V51.8828H132.292V47.9365L132.652 39.0859ZM145.651 49.9844V51.8828H138.848V49.9844H145.651ZM139.586 39.0859V51.8828H137.169V39.0859H139.586ZM144.763 44.3682V46.2227H138.848V44.3682H144.763ZM145.625 39.0859V40.9932H138.848V39.0859H145.625ZM155.82 44.3682V46.2666H149.087V44.3682H155.82ZM149.747 39.0859V51.8828H147.33V39.0859H149.747ZM157.613 39.0859V51.8828H155.196V39.0859H157.613ZM166.947 47.1543H163.44L162.561 46.7939C161.577 46.4834 160.824 46.0146 160.302 45.3877C159.781 44.7607 159.52 43.9668 159.52 43.0059C159.52 42.1562 159.708 41.4414 160.083 40.8613C160.463 40.2754 161.002 39.833 161.7 39.5342C162.403 39.2354 163.235 39.0859 164.196 39.0859H168.573V51.8828H166.147V40.9932H164.196C163.428 40.9932 162.86 41.1836 162.491 41.5645C162.122 41.9453 161.937 42.4756 161.937 43.1553C161.937 43.6299 162.019 44.0312 162.183 44.3594C162.353 44.6875 162.602 44.9336 162.93 45.0977C163.264 45.2617 163.677 45.3438 164.169 45.3438H166.938L166.947 47.1543ZM164.328 46.1348L161.418 51.8828H158.808L161.735 46.1348H164.328ZM183.91 44.5352V46.4424H178.522V44.5352H183.91ZM174.901 47.6816H177.309C177.362 48.2207 177.485 48.6748 177.678 49.0439C177.877 49.4131 178.165 49.6943 178.54 49.8877C178.915 50.0752 179.395 50.1689 179.981 50.1689C180.473 50.1689 180.895 50.0752 181.247 49.8877C181.604 49.6943 181.894 49.416 182.117 49.0527C182.345 48.6895 182.512 48.25 182.618 47.7344C182.729 47.2188 182.785 46.6328 182.785 45.9766V45.001C182.785 44.4561 182.747 43.9639 182.67 43.5244C182.594 43.0791 182.477 42.6895 182.319 42.3555C182.167 42.0156 181.976 41.7344 181.748 41.5117C181.519 41.2832 181.252 41.1104 180.948 40.9932C180.643 40.876 180.303 40.8174 179.928 40.8174C179.331 40.8174 178.847 40.9199 178.478 41.125C178.109 41.3242 177.833 41.6143 177.652 41.9951C177.47 42.3701 177.353 42.8242 177.3 43.3574H174.892C174.974 42.4961 175.214 41.7314 175.613 41.0635C176.011 40.3896 176.568 39.8623 177.283 39.4814C178.003 39.1006 178.885 38.9102 179.928 38.9102C180.731 38.9102 181.455 39.0537 182.099 39.3408C182.75 39.6221 183.306 40.0293 183.769 40.5625C184.232 41.0957 184.583 41.7373 184.824 42.4873C185.07 43.2373 185.193 44.0811 185.193 45.0186V45.9766C185.193 46.9082 185.073 47.749 184.833 48.499C184.592 49.249 184.247 49.8877 183.795 50.415C183.344 50.9424 182.796 51.3496 182.152 51.6367C181.513 51.9238 180.79 52.0674 179.981 52.0674C178.944 52.0674 178.059 51.8799 177.327 51.5049C176.594 51.124 176.023 50.6055 175.613 49.9492C175.203 49.2871 174.965 48.5312 174.901 47.6816ZM192.426 39.0859V51.8828H190.018V39.0859H192.426ZM196.399 39.0859V40.9932H186.089V39.0859H196.399ZM208.124 45.1592V45.8184C208.124 46.7852 207.995 47.6553 207.737 48.4287C207.479 49.1963 207.113 49.8496 206.638 50.3887C206.164 50.9277 205.598 51.3408 204.942 51.6279C204.286 51.915 203.556 52.0586 202.753 52.0586C201.962 52.0586 201.236 51.915 200.574 51.6279C199.917 51.3408 199.349 50.9277 198.869 50.3887C198.388 49.8496 198.016 49.1963 197.752 48.4287C197.489 47.6553 197.357 46.7852 197.357 45.8184V45.1592C197.357 44.1865 197.489 43.3164 197.752 42.5488C198.016 41.7812 198.385 41.1279 198.86 40.5889C199.334 40.0439 199.9 39.6279 200.556 39.3408C201.218 39.0537 201.945 38.9102 202.736 38.9102C203.539 38.9102 204.268 39.0537 204.924 39.3408C205.581 39.6279 206.146 40.0439 206.621 40.5889C207.101 41.1279 207.47 41.7812 207.728 42.5488C207.992 43.3164 208.124 44.1865 208.124 45.1592ZM205.68 45.8184V45.1416C205.68 44.4443 205.616 43.832 205.487 43.3047C205.358 42.7715 205.167 42.3232 204.916 41.96C204.664 41.5967 204.353 41.3242 203.984 41.1426C203.615 40.9551 203.199 40.8613 202.736 40.8613C202.267 40.8613 201.851 40.9551 201.488 41.1426C201.13 41.3242 200.826 41.5967 200.574 41.96C200.322 42.3232 200.128 42.7715 199.994 43.3047C199.865 43.832 199.8 44.4443 199.8 45.1416V45.8184C199.8 46.5098 199.865 47.1221 199.994 47.6553C200.128 48.1885 200.322 48.6396 200.574 49.0088C200.832 49.3721 201.142 49.6475 201.505 49.835C201.869 50.0225 202.285 50.1162 202.753 50.1162C203.222 50.1162 203.638 50.0225 204.001 49.835C204.365 49.6475 204.669 49.3721 204.916 49.0088C205.167 48.6396 205.358 48.1885 205.487 47.6553C205.616 47.1221 205.68 46.5098 205.68 45.8184ZM218.662 47.3389L221.861 39.0859H224.489L220.077 49.4834C219.93 49.8174 219.763 50.1396 219.576 50.4502C219.388 50.7607 219.163 51.0391 218.899 51.2852C218.641 51.5254 218.328 51.7158 217.958 51.8564C217.595 51.9971 217.156 52.0674 216.64 52.0674C216.505 52.0674 216.344 52.0615 216.157 52.0498C215.969 52.0439 215.826 52.0352 215.726 52.0234V50.125C215.796 50.1426 215.911 50.1543 216.069 50.1602C216.233 50.166 216.35 50.1689 216.42 50.1689C216.76 50.1689 217.03 50.1162 217.229 50.0107C217.434 49.8994 217.595 49.75 217.712 49.5625C217.835 49.3691 217.944 49.1494 218.038 48.9033L218.662 47.3389ZM216.394 39.0859L219.461 45.792L220.182 48.4023L218.345 48.4551L213.775 39.0859H216.394ZM229.991 46.4775L225.174 39.0859H228.154L231.151 44.3594H233.41L233.084 46.4775H229.991ZM231.16 46.1348L227.969 51.8828H224.955L229.279 44.623L231.16 46.1348ZM234.913 39.0859V51.8828H232.504V39.0859H234.913ZM242.146 39.0859L237.382 46.4775H234.315L233.99 44.3594H236.222L239.158 39.0859H242.146ZM239.351 51.8828L236.222 46.1348L238.112 44.623L242.366 51.8828H239.351ZM252.104 49.9844V51.8828H245.301V49.9844H252.104ZM246.04 39.0859V51.8828H243.623V39.0859H246.04ZM251.216 44.3682V46.2227H245.301V44.3682H251.216ZM252.078 39.0859V40.9932H245.301V39.0859H252.078ZM266.5 39.0859V40.9932H260.647V51.8828H258.239V39.0859H266.5ZM259.865 43.876H262.967C263.958 43.876 264.807 44.043 265.516 44.377C266.225 44.7051 266.767 45.165 267.142 45.7568C267.523 46.3486 267.713 47.043 267.713 47.8398C267.713 48.4375 267.605 48.9824 267.388 49.4746C267.177 49.9668 266.867 50.3945 266.457 50.7578C266.046 51.1152 265.548 51.3936 264.962 51.5928C264.376 51.7861 263.711 51.8828 262.967 51.8828H258.239V39.0859H260.665V49.9844H262.967C263.495 49.9844 263.931 49.8848 264.277 49.6855C264.623 49.4863 264.88 49.2227 265.05 48.8945C265.22 48.5664 265.305 48.209 265.305 47.8223C265.305 47.4414 265.22 47.0957 265.05 46.7852C264.88 46.4746 264.623 46.2285 264.277 46.0469C263.931 45.8652 263.495 45.7744 262.967 45.7744H259.865V43.876ZM278.049 49.9844V51.8828H271.247V49.9844H278.049ZM271.985 39.0859V51.8828H269.568V39.0859H271.985ZM277.162 44.3682V46.2227H271.247V44.3682H277.162ZM278.023 39.0859V40.9932H271.247V39.0859H278.023ZM287.216 47.6729H289.633C289.569 48.5283 289.332 49.2871 288.921 49.9492C288.511 50.6055 287.94 51.1211 287.208 51.4961C286.475 51.8711 285.587 52.0586 284.544 52.0586C283.742 52.0586 283.018 51.918 282.374 51.6367C281.735 51.3496 281.187 50.9424 280.73 50.415C280.279 49.8818 279.933 49.2432 279.693 48.499C279.453 47.749 279.333 46.9082 279.333 45.9766V45.001C279.333 44.0693 279.456 43.2285 279.702 42.4785C279.948 41.7285 280.299 41.0898 280.756 40.5625C281.219 40.0293 281.773 39.6191 282.417 39.332C283.068 39.0449 283.794 38.9014 284.597 38.9014C285.64 38.9014 286.522 39.0947 287.243 39.4814C287.963 39.8623 288.523 40.3867 288.921 41.0547C289.32 41.7227 289.56 42.4902 289.642 43.3574H287.225C287.178 42.8184 287.061 42.3613 286.874 41.9863C286.692 41.6113 286.417 41.3271 286.047 41.1338C285.684 40.9346 285.201 40.835 284.597 40.835C284.128 40.835 283.715 40.9229 283.358 41.0986C283.006 41.2744 282.713 41.5381 282.479 41.8896C282.245 42.2354 282.069 42.6689 281.952 43.1904C281.834 43.7061 281.776 44.3037 281.776 44.9834V45.9766C281.776 46.627 281.829 47.21 281.934 47.7256C282.04 48.2412 282.204 48.6777 282.426 49.0352C282.649 49.3926 282.936 49.665 283.288 49.8525C283.639 50.04 284.058 50.1338 284.544 50.1338C285.136 50.1338 285.617 50.04 285.986 49.8525C286.361 49.665 286.645 49.3896 286.838 49.0264C287.038 48.6631 287.164 48.2119 287.216 47.6729ZM293.87 48.0156L299.275 39.0859H301.701V51.8828H299.275V42.9531L293.87 51.8828H291.453V39.0859H293.87V48.0156ZM309.391 39.0859V51.8828H306.983V39.0859H309.391ZM313.364 39.0859V40.9932H303.054V39.0859H313.364ZM317.442 39.0859L317.187 48.042H315.227L314.972 39.0859H317.442ZM314.902 50.8018C314.902 50.4561 315.019 50.166 315.253 49.9316C315.494 49.6914 315.816 49.5713 316.22 49.5713C316.625 49.5713 316.944 49.6914 317.178 49.9316C317.418 50.166 317.539 50.4561 317.539 50.8018C317.539 51.1416 317.418 51.4287 317.178 51.6631C316.944 51.8975 316.625 52.0146 316.22 52.0146C315.816 52.0146 315.494 51.8975 315.253 51.6631C315.019 51.4287 314.902 51.1416 314.902 50.8018Z" fill="black"/>
</svg>
