<svg width="59" height="78" viewBox="0 0 59 78" fill="none" xmlns="http://www.w3.org/2000/svg">
<path d="M26.9313 34V13.84H13.4913V20.56H20.2113V27.28H6.77125V7.12H26.9313V0.399998H0.0512505V34H26.9313ZM58.2194 34V13.84H44.7794V20.56H51.4994V27.28H38.0594V7.12H58.2194V0.399998H31.3394V34H58.2194ZM34.0497 78V44.4H27.3297V64.56H20.6097V57.84H13.8897V64.56H20.6097V71.28H27.3297V78H34.0497ZM7.16969 64.56V44.4H0.449688V78H7.16969V71.28H13.8897V64.56H7.16969ZM57.8509 64.56V44.4H37.6909V78H44.4109V64.56H57.8509ZM51.1309 57.84H44.4109V51.12H51.1309V57.84Z" fill="white"/>
</svg>
