<svg width="542" height="274" viewBox="0 0 542 274" fill="none" xmlns="http://www.w3.org/2000/svg">
<rect width="542" height="274" fill="#1400FC" fill-opacity="0.69"/>
<path d="M235.039 234.938V252H231.523V234.938H235.039ZM241.836 242.227V244.969H234.078V242.227H241.836ZM242.656 234.938V237.691H234.078V234.938H242.656ZM258.711 243.07V243.879C258.711 245.176 258.535 246.34 258.184 247.371C257.832 248.402 257.336 249.281 256.695 250.008C256.055 250.727 255.289 251.277 254.398 251.66C253.516 252.043 252.535 252.234 251.457 252.234C250.387 252.234 249.406 252.043 248.516 251.66C247.633 251.277 246.867 250.727 246.219 250.008C245.57 249.281 245.066 248.402 244.707 247.371C244.355 246.34 244.18 245.176 244.18 243.879V243.07C244.18 241.766 244.355 240.602 244.707 239.578C245.059 238.547 245.555 237.668 246.195 236.941C246.844 236.215 247.609 235.66 248.492 235.277C249.383 234.895 250.363 234.703 251.434 234.703C252.512 234.703 253.492 234.895 254.375 235.277C255.266 235.66 256.031 236.215 256.672 236.941C257.32 237.668 257.82 238.547 258.172 239.578C258.531 240.602 258.711 241.766 258.711 243.07ZM255.16 243.879V243.047C255.16 242.141 255.078 241.344 254.914 240.656C254.75 239.969 254.508 239.391 254.188 238.922C253.867 238.453 253.477 238.102 253.016 237.867C252.555 237.625 252.027 237.504 251.434 237.504C250.84 237.504 250.312 237.625 249.852 237.867C249.398 238.102 249.012 238.453 248.691 238.922C248.379 239.391 248.141 239.969 247.977 240.656C247.812 241.344 247.73 242.141 247.73 243.047V243.879C247.73 244.777 247.812 245.574 247.977 246.27C248.141 246.957 248.383 247.539 248.703 248.016C249.023 248.484 249.414 248.84 249.875 249.082C250.336 249.324 250.863 249.445 251.457 249.445C252.051 249.445 252.578 249.324 253.039 249.082C253.5 248.84 253.887 248.484 254.199 248.016C254.512 247.539 254.75 246.957 254.914 246.27C255.078 245.574 255.16 244.777 255.16 243.879ZM275.129 234.938V252H271.613L264.758 240.562V252H261.242V234.938H264.758L271.625 246.387V234.938H275.129ZM285.465 234.938V252H281.961V234.938H285.465ZM290.715 234.938V237.691H276.793V234.938H290.715Z" fill="white"/>
<path d="M48.383 63.1955L48.058 65.7695H48.8705V67.1215H47.876L47.629 69H45.9325L46.1795 67.1215H44.9445L44.6975 69H43.001L43.235 67.1215H42.4615V65.7695H43.417L43.755 63.1955H42.9425V61.837H43.937L44.171 59.991H45.8805L45.627 61.837H46.8685L47.1155 59.991H48.812L48.565 61.837H49.3515V63.1955H48.383ZM45.1135 65.7695H46.3485L46.6865 63.1955H45.4515L45.1135 65.7695ZM56.1779 63.1955L55.8529 65.7695H56.6654V67.1215H55.6709L55.4239 69H53.7274L53.9744 67.1215H52.7394L52.4924 69H50.7959L51.0299 67.1215H50.2564V65.7695H51.2119L51.5499 63.1955H50.7374V61.837H51.7319L51.9659 59.991H53.6754L53.4219 61.837H54.6634L54.9104 59.991H56.6069L56.3599 61.837H57.1464V63.1955H56.1779ZM52.9084 65.7695H54.1434L54.4814 63.1955H53.2464L52.9084 65.7695ZM63.9728 63.1955L63.6478 65.7695H64.4603V67.1215H63.4658L63.2188 69H61.5223L61.7693 67.1215H60.5343L60.2873 69H58.5908L58.8248 67.1215H58.0513V65.7695H59.0068L59.3448 63.1955H58.5323V61.837H59.5268L59.7608 59.991H61.4703L61.2168 61.837H62.4583L62.7053 59.991H64.4018L64.1548 61.837H64.9413V63.1955H63.9728ZM60.7033 65.7695H61.9383L62.2763 63.1955H61.0413L60.7033 65.7695ZM71.7678 63.1955L71.4428 65.7695H72.2553V67.1215H71.2608L71.0138 69H69.3173L69.5643 67.1215H68.3293L68.0823 69H66.3858L66.6198 67.1215H65.8463V65.7695H66.8018L67.1398 63.1955H66.3273V61.837H67.3218L67.5558 59.991H69.2653L69.0118 61.837H70.2533L70.5003 59.991H72.1968L71.9498 61.837H72.7363V63.1955H71.7678ZM68.4983 65.7695H69.7333L70.0713 63.1955H68.8363L68.4983 65.7695ZM79.5627 63.1955L79.2377 65.7695H80.0502V67.1215H79.0557L78.8087 69H77.1122L77.3592 67.1215H76.1242L75.8772 69H74.1807L74.4147 67.1215H73.6412V65.7695H74.5967L74.9347 63.1955H74.1222V61.837H75.1167L75.3507 59.991H77.0602L76.8067 61.837H78.0482L78.2952 59.991H79.9917L79.7447 61.837H80.5312V63.1955H79.5627ZM76.2932 65.7695H77.5282L77.8662 63.1955H76.6312L76.2932 65.7695ZM87.3576 63.1955L87.0326 65.7695H87.8451V67.1215H86.8506L86.6036 69H84.9071L85.1541 67.1215H83.9191L83.6721 69H81.9756L82.2096 67.1215H81.4361V65.7695H82.3916L82.7296 63.1955H81.9171V61.837H82.9116L83.1456 59.991H84.8551L84.6016 61.837H85.8431L86.0901 59.991H87.7866L87.5396 61.837H88.3261V63.1955H87.3576ZM84.0881 65.7695H85.3231L85.6611 63.1955H84.4261L84.0881 65.7695ZM95.1525 63.1955L94.8275 65.7695H95.64V67.1215H94.6455L94.3985 69H92.702L92.949 67.1215H91.714L91.467 69H89.7705L90.0045 67.1215H89.231V65.7695H90.1865L90.5245 63.1955H89.712V61.837H90.7065L90.9405 59.991H92.65L92.3965 61.837H93.638L93.885 59.991H95.5815L95.3345 61.837H96.121V63.1955H95.1525ZM91.883 65.7695H93.118L93.456 63.1955H92.221L91.883 65.7695ZM127.301 63.1955H126.332L126.007 65.7695H126.82V67.1215H125.825L125.578 69H123.882L124.129 67.1215H122.894L122.647 69H120.95L121.184 67.1215H118.025L117.778 69H116.082L116.329 67.1215H115.094L114.847 69H113.15L113.384 67.1215H110.225L109.978 69H108.282L108.529 67.1215H107.294L107.047 69H105.35L105.584 67.1215H104.811V65.7695H105.766L106.104 63.1955H105.292V61.837H106.286L106.52 59.991H108.23L107.976 61.837H109.218L109.465 59.991H111.161L110.914 61.837H114.086L114.32 59.991H116.03L115.776 61.837H117.018L117.265 59.991H118.961L118.714 61.837H121.886L122.12 59.991H123.83L123.576 61.837H124.818L125.065 59.991H126.761L126.514 61.837H127.301V63.1955ZM108.698 65.7695L109.036 63.1955H107.801L107.463 65.7695H108.698ZM113.566 65.7695L113.904 63.1955H110.732L110.407 65.7695H113.566ZM116.498 65.7695L116.836 63.1955H115.601L115.263 65.7695H116.498ZM121.366 65.7695L121.704 63.1955H118.532L118.207 65.7695H121.366ZM124.298 65.7695L124.636 63.1955H123.401L123.063 65.7695H124.298ZM141.922 63.1955L141.597 65.7695H142.41V67.1215H141.415L141.168 69H139.472L139.719 67.1215H138.484L138.237 69H136.54L136.774 67.1215H136.001V65.7695H136.956L137.294 63.1955H136.482V61.837H137.476L137.71 59.991H139.42L139.166 61.837H140.408L140.655 59.991H142.351L142.104 61.837H142.891V63.1955H141.922ZM138.653 65.7695H139.888L140.226 63.1955H138.991L138.653 65.7695ZM149.717 63.1955L149.392 65.7695H150.204V67.1215H149.21L148.963 69H147.266L147.513 67.1215H146.278L146.031 69H144.335L144.569 67.1215H143.795V65.7695H144.751L145.089 63.1955H144.276V61.837H145.271L145.505 59.991H147.214L146.961 61.837H148.202L148.449 59.991H150.146L149.899 61.837H150.685V63.1955H149.717ZM146.447 65.7695H147.682L148.02 63.1955H146.785L146.447 65.7695ZM157.512 63.1955L157.187 65.7695H157.999V67.1215H157.005L156.758 69H155.061L155.308 67.1215H154.073L153.826 69H152.13L152.364 67.1215H151.59V65.7695H152.546L152.884 63.1955H152.071V61.837H153.066L153.3 59.991H155.009L154.756 61.837H155.997L156.244 59.991H157.941L157.694 61.837H158.48V63.1955H157.512ZM154.242 65.7695H155.477L155.815 63.1955H154.58L154.242 65.7695ZM165.307 63.1955L164.982 65.7695H165.794V67.1215H164.8L164.553 69H162.856L163.103 67.1215H161.868L161.621 69H159.925L160.159 67.1215H159.385V65.7695H160.341L160.679 63.1955H159.866V61.837H160.861L161.095 59.991H162.804L162.551 61.837H163.792L164.039 59.991H165.736L165.489 61.837H166.275V63.1955H165.307ZM162.037 65.7695H163.272L163.61 63.1955H162.375L162.037 65.7695ZM173.102 63.1955L172.777 65.7695H173.589V67.1215H172.595L172.348 69H170.651L170.898 67.1215H169.663L169.416 69H167.72L167.954 67.1215H167.18V65.7695H168.136L168.474 63.1955H167.661V61.837H168.656L168.89 59.991H170.599L170.346 61.837H171.587L171.834 59.991H173.531L173.284 61.837H174.07V63.1955H173.102ZM169.832 65.7695H171.067L171.405 63.1955H170.17L169.832 65.7695ZM180.897 63.1955L180.572 65.7695H181.384V67.1215H180.39L180.143 69H178.446L178.693 67.1215H177.458L177.211 69H175.515L175.749 67.1215H174.975V65.7695H175.931L176.269 63.1955H175.456V61.837H176.451L176.685 59.991H178.394L178.141 61.837H179.382L179.629 59.991H181.326L181.079 61.837H181.865V63.1955H180.897ZM177.627 65.7695H178.862L179.2 63.1955H177.965L177.627 65.7695ZM227.666 63.1955L227.341 65.7695H228.154V67.1215H227.159L226.912 69H225.216L225.463 67.1215H224.228L223.981 69H222.284L222.518 67.1215H221.745V65.7695H222.7L223.038 63.1955H222.226V61.837H223.22L223.454 59.991H225.164L224.91 61.837H226.152L226.399 59.991H228.095L227.848 61.837H228.635V63.1955H227.666ZM224.397 65.7695H225.632L225.97 63.1955H224.735L224.397 65.7695ZM297.821 63.1955L297.496 65.7695H298.308V67.1215H297.314L297.067 69H295.37L295.617 67.1215H294.382L294.135 69H292.439L292.673 67.1215H291.899V65.7695H292.855L293.193 63.1955H292.38V61.837H293.375L293.609 59.991H295.318L295.065 61.837H296.306L296.553 59.991H298.25L298.002 61.837H298.789V63.1955H297.821ZM294.551 65.7695H295.786L296.124 63.1955H294.889L294.551 65.7695ZM305.615 63.1955L305.29 65.7695H306.103V67.1215H305.108L304.861 69H303.165L303.412 67.1215H302.177L301.93 69H300.233L300.467 67.1215H299.694V65.7695H300.649L300.987 63.1955H300.175V61.837H301.169L301.403 59.991H303.113L302.859 61.837H304.101L304.348 59.991H306.044L305.797 61.837H306.584V63.1955H305.615ZM302.346 65.7695H303.581L303.919 63.1955H302.684L302.346 65.7695ZM313.41 63.1955L313.085 65.7695H313.898V67.1215H312.903L312.656 69H310.96L311.207 67.1215H309.972L309.725 69H308.028L308.262 67.1215H307.489V65.7695H308.444L308.782 63.1955H307.97V61.837H308.964L309.198 59.991H310.908L310.654 61.837H311.896L312.143 59.991H313.839L313.592 61.837H314.379V63.1955H313.41ZM310.141 65.7695H311.376L311.714 63.1955H310.479L310.141 65.7695ZM321.205 63.1955L320.88 65.7695H321.693V67.1215H320.698L320.451 69H318.755L319.002 67.1215H317.767L317.52 69H315.823L316.057 67.1215H315.284V65.7695H316.239L316.577 63.1955H315.765V61.837H316.759L316.993 59.991H318.703L318.449 61.837H319.691L319.938 59.991H321.634L321.387 61.837H322.174V63.1955H321.205ZM317.936 65.7695H319.171L319.509 63.1955H318.274L317.936 65.7695ZM329 63.1955L328.675 65.7695H329.488V67.1215H328.493L328.246 69H326.55L326.797 67.1215H325.562L325.315 69H323.618L323.852 67.1215H323.079V65.7695H324.034L324.372 63.1955H323.56V61.837H324.554L324.788 59.991H326.498L326.244 61.837H327.486L327.733 59.991H329.429L329.182 61.837H329.969V63.1955H329ZM325.731 65.7695H326.966L327.304 63.1955H326.069L325.731 65.7695ZM352.385 63.1955L352.06 65.7695H352.872V67.1215H351.878L351.631 69H349.934L350.181 67.1215H348.946L348.699 69H347.003L347.237 67.1215H346.463V65.7695H347.419L347.757 63.1955H346.944V61.837H347.939L348.173 59.991H349.882L349.629 61.837H350.87L351.117 59.991H352.814L352.567 61.837H353.353V63.1955H352.385ZM349.115 65.7695H350.35L350.688 63.1955H349.453L349.115 65.7695ZM360.18 63.1955L359.855 65.7695H360.667V67.1215H359.673L359.426 69H357.729L357.976 67.1215H356.741L356.494 69H354.798L355.032 67.1215H354.258V65.7695H355.214L355.552 63.1955H354.739V61.837H355.734L355.968 59.991H357.677L357.424 61.837H358.665L358.912 59.991H360.609L360.362 61.837H361.148V63.1955H360.18ZM356.91 65.7695H358.145L358.483 63.1955H357.248L356.91 65.7695ZM367.975 63.1955L367.65 65.7695H368.462V67.1215H367.468L367.221 69H365.524L365.771 67.1215H364.536L364.289 69H362.593L362.827 67.1215H362.053V65.7695H363.009L363.347 63.1955H362.534V61.837H363.529L363.763 59.991H365.472L365.219 61.837H366.46L366.707 59.991H368.404L368.157 61.837H368.943V63.1955H367.975ZM364.705 65.7695H365.94L366.278 63.1955H365.043L364.705 65.7695ZM375.77 63.1955L375.445 65.7695H376.257V67.1215H375.263L375.016 69H373.319L373.566 67.1215H372.331L372.084 69H370.388L370.622 67.1215H369.848V65.7695H370.804L371.142 63.1955H370.329V61.837H371.324L371.558 59.991H373.267L373.014 61.837H374.255L374.502 59.991H376.199L375.952 61.837H376.738V63.1955H375.77ZM372.5 65.7695H373.735L374.073 63.1955H372.838L372.5 65.7695ZM383.565 63.1955L383.24 65.7695H384.052V67.1215H383.058L382.811 69H381.114L381.361 67.1215H380.126L379.879 69H378.183L378.417 67.1215H377.643V65.7695H378.599L378.937 63.1955H378.124V61.837H379.119L379.353 59.991H381.062L380.809 61.837H382.05L382.297 59.991H383.994L383.747 61.837H384.533V63.1955H383.565ZM380.295 65.7695H381.53L381.868 63.1955H380.633L380.295 65.7695ZM391.36 63.1955L391.035 65.7695H391.847V67.1215H390.853L390.606 69H388.909L389.156 67.1215H387.921L387.674 69H385.978L386.212 67.1215H385.438V65.7695H386.394L386.732 63.1955H385.919V61.837H386.914L387.148 59.991H388.857L388.604 61.837H389.845L390.092 59.991H391.789L391.542 61.837H392.328V63.1955H391.36ZM388.09 65.7695H389.325L389.663 63.1955H388.428L388.09 65.7695ZM399.154 63.1955L398.829 65.7695H399.642V67.1215H398.647L398.4 69H396.704L396.951 67.1215H395.716L395.469 69H393.772L394.006 67.1215H393.233V65.7695H394.188L394.526 63.1955H393.714V61.837H394.708L394.942 59.991H396.652L396.398 61.837H397.64L397.887 59.991H399.583L399.336 61.837H400.123V63.1955H399.154ZM395.885 65.7695H397.12L397.458 63.1955H396.223L395.885 65.7695ZM414.744 63.1955L414.419 65.7695H415.232V67.1215H414.237L413.99 69H412.294L412.541 67.1215H411.306L411.059 69H409.362L409.596 67.1215H408.823V65.7695H409.778L410.116 63.1955H409.304V61.837H410.298L410.532 59.991H412.242L411.988 61.837H413.23L413.477 59.991H415.173L414.926 61.837H415.713V63.1955H414.744ZM411.475 65.7695H412.71L413.048 63.1955H411.813L411.475 65.7695ZM422.539 63.1955L422.214 65.7695H423.027V67.1215H422.032L421.785 69H420.089L420.336 67.1215H419.101L418.854 69H417.157L417.391 67.1215H416.618V65.7695H417.573L417.911 63.1955H417.099V61.837H418.093L418.327 59.991H420.037L419.783 61.837H421.025L421.272 59.991H422.968L422.721 61.837H423.508V63.1955H422.539ZM419.27 65.7695H420.505L420.843 63.1955H419.608L419.27 65.7695ZM430.334 63.1955L430.009 65.7695H430.822V67.1215H429.827L429.58 69H427.884L428.131 67.1215H426.896L426.649 69H424.952L425.186 67.1215H424.413V65.7695H425.368L425.706 63.1955H424.894V61.837H425.888L426.122 59.991H427.832L427.578 61.837H428.82L429.067 59.991H430.763L430.516 61.837H431.303V63.1955H430.334ZM427.065 65.7695H428.3L428.638 63.1955H427.403L427.065 65.7695ZM438.129 63.1955L437.804 65.7695H438.617V67.1215H437.622L437.375 69H435.679L435.926 67.1215H434.691L434.444 69H432.747L432.981 67.1215H432.208V65.7695H433.163L433.501 63.1955H432.689V61.837H433.683L433.917 59.991H435.627L435.373 61.837H436.615L436.862 59.991H438.558L438.311 61.837H439.098V63.1955H438.129ZM434.86 65.7695H436.095L436.433 63.1955H435.198L434.86 65.7695ZM445.924 63.1955L445.599 65.7695H446.412V67.1215H445.417L445.17 69H443.474L443.721 67.1215H442.486L442.239 69H440.542L440.776 67.1215H440.003V65.7695H440.958L441.296 63.1955H440.484V61.837H441.478L441.712 59.991H443.422L443.168 61.837H444.41L444.657 59.991H446.353L446.106 61.837H446.893V63.1955H445.924ZM442.655 65.7695H443.89L444.228 63.1955H442.993L442.655 65.7695ZM453.719 63.1955L453.394 65.7695H454.206V67.1215H453.212L452.965 69H451.268L451.515 67.1215H450.28L450.033 69H448.337L448.571 67.1215H447.797V65.7695H448.753L449.091 63.1955H448.278V61.837H449.273L449.507 59.991H451.216L450.963 61.837H452.204L452.451 59.991H454.148L453.901 61.837H454.687V63.1955H453.719ZM450.449 65.7695H451.684L452.022 63.1955H450.787L450.449 65.7695ZM477.104 63.1955L476.779 65.7695H477.591V67.1215H476.597L476.35 69H474.653L474.9 67.1215H473.665L473.418 69H471.722L471.956 67.1215H471.182V65.7695H472.138L472.476 63.1955H471.663V61.837H472.658L472.892 59.991H474.601L474.348 61.837H475.589L475.836 59.991H477.533L477.286 61.837H478.072V63.1955H477.104ZM473.834 65.7695H475.069L475.407 63.1955H474.172L473.834 65.7695ZM484.899 63.1955L484.574 65.7695H485.386V67.1215H484.392L484.145 69H482.448L482.695 67.1215H481.46L481.213 69H479.517L479.751 67.1215H478.977V65.7695H479.933L480.271 63.1955H479.458V61.837H480.453L480.687 59.991H482.396L482.143 61.837H483.384L483.631 59.991H485.328L485.081 61.837H485.867V63.1955H484.899ZM481.629 65.7695H482.864L483.202 63.1955H481.967L481.629 65.7695ZM492.694 63.1955L492.369 65.7695H493.181V67.1215H492.187L491.94 69H490.243L490.49 67.1215H489.255L489.008 69H487.312L487.546 67.1215H486.772V65.7695H487.728L488.066 63.1955H487.253V61.837H488.248L488.482 59.991H490.191L489.938 61.837H491.179L491.426 59.991H493.123L492.876 61.837H493.662V63.1955H492.694ZM489.424 65.7695H490.659L490.997 63.1955H489.762L489.424 65.7695ZM500.488 63.1955L500.163 65.7695H500.976V67.1215H499.981L499.734 69H498.038L498.285 67.1215H497.05L496.803 69H495.106L495.34 67.1215H494.567V65.7695H495.522L495.86 63.1955H495.048V61.837H496.042L496.276 59.991H497.986L497.732 61.837H498.974L499.221 59.991H500.917L500.67 61.837H501.457V63.1955H500.488ZM497.219 65.7695H498.454L498.792 63.1955H497.557L497.219 65.7695ZM508.283 63.1955L507.958 65.7695H508.771V67.1215H507.776L507.529 69H505.833L506.08 67.1215H504.845L504.598 69H502.901L503.135 67.1215H502.362V65.7695H503.317L503.655 63.1955H502.843V61.837H503.837L504.071 59.991H505.781L505.527 61.837H506.769L507.016 59.991H508.712L508.465 61.837H509.252V63.1955H508.283ZM505.014 65.7695H506.249L506.587 63.1955H505.352L505.014 65.7695ZM516.078 63.1955L515.753 65.7695H516.566V67.1215H515.571L515.324 69H513.628L513.875 67.1215H512.64L512.393 69H510.696L510.93 67.1215H510.157V65.7695H511.112L511.45 63.1955H510.638V61.837H511.632L511.866 59.991H513.576L513.322 61.837H514.564L514.811 59.991H516.507L516.26 61.837H517.047V63.1955H516.078ZM512.809 65.7695H514.044L514.382 63.1955H513.147L512.809 65.7695ZM523.873 63.1955L523.548 65.7695H524.361V67.1215H523.366L523.119 69H521.423L521.67 67.1215H520.435L520.188 69H518.491L518.725 67.1215H517.952V65.7695H518.907L519.245 63.1955H518.433V61.837H519.427L519.661 59.991H521.371L521.117 61.837H522.359L522.606 59.991H524.302L524.055 61.837H524.842V63.1955H523.873ZM520.604 65.7695H521.839L522.177 63.1955H520.942L520.604 65.7695ZM48.383 80.1955L48.058 82.7695H48.8705V84.1215H47.876L47.629 86H45.9325L46.1795 84.1215H44.9445L44.6975 86H43.001L43.235 84.1215H42.4615V82.7695H43.417L43.755 80.1955H42.9425V78.837H43.937L44.171 76.991H45.8805L45.627 78.837H46.8685L47.1155 76.991H48.812L48.565 78.837H49.3515V80.1955H48.383ZM45.1135 82.7695H46.3485L46.6865 80.1955H45.4515L45.1135 82.7695ZM118.537 80.1955L118.212 82.7695H119.025V84.1215H118.03L117.783 86H116.087L116.334 84.1215H115.099L114.852 86H113.155L113.389 84.1215H112.616V82.7695H113.571L113.909 80.1955H113.097V78.837H114.091L114.325 76.991H116.035L115.781 78.837H117.023L117.27 76.991H118.966L118.719 78.837H119.506V80.1955H118.537ZM115.268 82.7695H116.503L116.841 80.1955H115.606L115.268 82.7695ZM141.922 80.1955L141.597 82.7695H142.41V84.1215H141.415L141.168 86H139.472L139.719 84.1215H138.484L138.237 86H136.54L136.774 84.1215H136.001V82.7695H136.956L137.294 80.1955H136.482V78.837H137.476L137.71 76.991H139.42L139.166 78.837H140.408L140.655 76.991H142.351L142.104 78.837H142.891V80.1955H141.922ZM138.653 82.7695H139.888L140.226 80.1955H138.991L138.653 82.7695ZM188.692 80.1955L188.367 82.7695H189.179V84.1215H188.185L187.938 86H186.241L186.488 84.1215H185.253L185.006 86H183.31L183.544 84.1215H182.77V82.7695H183.726L184.064 80.1955H183.251V78.837H184.246L184.48 76.991H186.189L185.936 78.837H187.177L187.424 76.991H189.121L188.874 78.837H189.66V80.1955H188.692ZM185.422 82.7695H186.657L186.995 80.1955H185.76L185.422 82.7695ZM219.871 80.1955L219.546 82.7695H220.359V84.1215H219.364L219.117 86H217.421L217.668 84.1215H216.433L216.186 86H214.489L214.723 84.1215H213.95V82.7695H214.905L215.243 80.1955H214.431V78.837H215.425L215.659 76.991H217.369L217.115 78.837H218.357L218.604 76.991H220.3L220.053 78.837H220.84V80.1955H219.871ZM216.602 82.7695H217.837L218.175 80.1955H216.94L216.602 82.7695ZM235.461 80.1955L235.136 82.7695H235.949V84.1215H234.954L234.707 86H233.011L233.258 84.1215H232.023L231.776 86H230.079L230.313 84.1215H229.54V82.7695H230.495L230.833 80.1955H230.021V78.837H231.015L231.249 76.991H232.959L232.705 78.837H233.947L234.194 76.991H235.89L235.643 78.837H236.43V80.1955H235.461ZM232.192 82.7695H233.427L233.765 80.1955H232.53L232.192 82.7695ZM290.026 80.1955L289.701 82.7695H290.513V84.1215H289.519L289.272 86H287.575L287.822 84.1215H286.587L286.34 86H284.644L284.878 84.1215H284.104V82.7695H285.06L285.398 80.1955H284.585V78.837H285.58L285.814 76.991H287.523L287.27 78.837H288.511L288.758 76.991H290.455L290.208 78.837H290.994V80.1955H290.026ZM286.756 82.7695H287.991L288.329 80.1955H287.094L286.756 82.7695ZM336.795 80.1955L336.47 82.7695H337.283V84.1215H336.288L336.041 86H334.345L334.592 84.1215H333.357L333.11 86H331.413L331.647 84.1215H330.874V82.7695H331.829L332.167 80.1955H331.355V78.837H332.349L332.583 76.991H334.293L334.039 78.837H335.281L335.528 76.991H337.224L336.977 78.837H337.764V80.1955H336.795ZM333.526 82.7695H334.761L335.099 80.1955H333.864L333.526 82.7695ZM352.385 80.1955L352.06 82.7695H352.872V84.1215H351.878L351.631 86H349.934L350.181 84.1215H348.946L348.699 86H347.003L347.237 84.1215H346.463V82.7695H347.419L347.757 80.1955H346.944V78.837H347.939L348.173 76.991H349.882L349.629 78.837H350.87L351.117 76.991H352.814L352.567 78.837H353.353V80.1955H352.385ZM349.115 82.7695H350.35L350.688 80.1955H349.453L349.115 82.7695ZM399.154 80.1955L398.829 82.7695H399.642V84.1215H398.647L398.4 86H396.704L396.951 84.1215H395.716L395.469 86H393.772L394.006 84.1215H393.233V82.7695H394.188L394.526 80.1955H393.714V78.837H394.708L394.942 76.991H396.652L396.398 78.837H397.64L397.887 76.991H399.583L399.336 78.837H400.123V80.1955H399.154ZM395.885 82.7695H397.12L397.458 80.1955H396.223L395.885 82.7695ZM414.744 80.1955L414.419 82.7695H415.232V84.1215H414.237L413.99 86H412.294L412.541 84.1215H411.306L411.059 86H409.362L409.596 84.1215H408.823V82.7695H409.778L410.116 80.1955H409.304V78.837H410.298L410.532 76.991H412.242L411.988 78.837H413.23L413.477 76.991H415.173L414.926 78.837H415.713V80.1955H414.744ZM411.475 82.7695H412.71L413.048 80.1955H411.813L411.475 82.7695ZM461.514 80.1955L461.189 82.7695H462.001V84.1215H461.007L460.76 86H459.063L459.31 84.1215H458.075L457.828 86H456.132L456.366 84.1215H455.592V82.7695H456.548L456.886 80.1955H456.073V78.837H457.068L457.302 76.991H459.011L458.758 78.837H459.999L460.246 76.991H461.943L461.696 78.837H462.482V80.1955H461.514ZM458.244 82.7695H459.479L459.817 80.1955H458.582L458.244 82.7695ZM477.104 80.1955L476.779 82.7695H477.591V84.1215H476.597L476.35 86H474.653L474.9 84.1215H473.665L473.418 86H471.722L471.956 84.1215H471.182V82.7695H472.138L472.476 80.1955H471.663V78.837H472.658L472.892 76.991H474.601L474.348 78.837H475.589L475.836 76.991H477.533L477.286 78.837H478.072V80.1955H477.104ZM473.834 82.7695H475.069L475.407 80.1955H474.172L473.834 82.7695ZM48.383 97.1955L48.058 99.7695H48.8705V101.121H47.876L47.629 103H45.9325L46.1795 101.121H44.9445L44.6975 103H43.001L43.235 101.121H42.4615V99.7695H43.417L43.755 97.1955H42.9425V95.837H43.937L44.171 93.991H45.8805L45.627 95.837H46.8685L47.1155 93.991H48.812L48.565 95.837H49.3515V97.1955H48.383ZM45.1135 99.7695H46.3485L46.6865 97.1955H45.4515L45.1135 99.7695ZM118.537 97.1955L118.212 99.7695H119.025V101.121H118.03L117.783 103H116.087L116.334 101.121H115.099L114.852 103H113.155L113.389 101.121H112.616V99.7695H113.571L113.909 97.1955H113.097V95.837H114.091L114.325 93.991H116.035L115.781 95.837H117.023L117.27 93.991H118.966L118.719 95.837H119.506V97.1955H118.537ZM115.268 99.7695H116.503L116.841 97.1955H115.606L115.268 99.7695ZM141.922 97.1955L141.597 99.7695H142.41V101.121H141.415L141.168 103H139.472L139.719 101.121H138.484L138.237 103H136.54L136.774 101.121H136.001V99.7695H136.956L137.294 97.1955H136.482V95.837H137.476L137.71 93.991H139.42L139.166 95.837H140.408L140.655 93.991H142.351L142.104 95.837H142.891V97.1955H141.922ZM138.653 99.7695H139.888L140.226 97.1955H138.991L138.653 99.7695ZM188.692 97.1955L188.367 99.7695H189.179V101.121H188.185L187.938 103H186.241L186.488 101.121H185.253L185.006 103H183.31L183.544 101.121H182.77V99.7695H183.726L184.064 97.1955H183.251V95.837H184.246L184.48 93.991H186.189L185.936 95.837H187.177L187.424 93.991H189.121L188.874 95.837H189.66V97.1955H188.692ZM185.422 99.7695H186.657L186.995 97.1955H185.76L185.422 99.7695ZM212.076 97.1955L211.751 99.7695H212.564V101.121H211.569L211.322 103H209.626L209.873 101.121H208.638L208.391 103H206.694L206.928 101.121H206.155V99.7695H207.11L207.448 97.1955H206.636V95.837H207.63L207.864 93.991H209.574L209.32 95.837H210.562L210.809 93.991H212.505L212.258 95.837H213.045V97.1955H212.076ZM208.807 99.7695H210.042L210.38 97.1955H209.145L208.807 99.7695ZM243.256 97.1955L242.931 99.7695H243.744V101.121H242.749L242.502 103H240.806L241.053 101.121H239.818L239.571 103H237.874L238.108 101.121H237.335V99.7695H238.29L238.628 97.1955H237.816V95.837H238.81L239.044 93.991H240.754L240.5 95.837H241.742L241.989 93.991H243.685L243.438 95.837H244.225V97.1955H243.256ZM239.987 99.7695H241.222L241.56 97.1955H240.325L239.987 99.7695ZM290.026 97.1955L289.701 99.7695H290.513V101.121H289.519L289.272 103H287.575L287.822 101.121H286.587L286.34 103H284.644L284.878 101.121H284.104V99.7695H285.06L285.398 97.1955H284.585V95.837H285.58L285.814 93.991H287.523L287.27 95.837H288.511L288.758 93.991H290.455L290.208 95.837H290.994V97.1955H290.026ZM286.756 99.7695H287.991L288.329 97.1955H287.094L286.756 99.7695ZM352.385 97.1955L352.06 99.7695H352.872V101.121H351.878L351.631 103H349.934L350.181 101.121H348.946L348.699 103H347.003L347.237 101.121H346.463V99.7695H347.419L347.757 97.1955H346.944V95.837H347.939L348.173 93.991H349.882L349.629 95.837H350.87L351.117 93.991H352.814L352.567 95.837H353.353V97.1955H352.385ZM349.115 99.7695H350.35L350.688 97.1955H349.453L349.115 99.7695ZM399.154 97.1955L398.829 99.7695H399.642V101.121H398.647L398.4 103H396.704L396.951 101.121H395.716L395.469 103H393.772L394.006 101.121H393.233V99.7695H394.188L394.526 97.1955H393.714V95.837H394.708L394.942 93.991H396.652L396.398 95.837H397.64L397.887 93.991H399.583L399.336 95.837H400.123V97.1955H399.154ZM395.885 99.7695H397.12L397.458 97.1955H396.223L395.885 99.7695ZM414.744 97.1955L414.419 99.7695H415.232V101.121H414.237L413.99 103H412.294L412.541 101.121H411.306L411.059 103H409.362L409.596 101.121H408.823V99.7695H409.778L410.116 97.1955H409.304V95.837H410.298L410.532 93.991H412.242L411.988 95.837H413.23L413.477 93.991H415.173L414.926 95.837H415.713V97.1955H414.744ZM411.475 99.7695H412.71L413.048 97.1955H411.813L411.475 99.7695ZM461.514 97.1955L461.189 99.7695H462.001V101.121H461.007L460.76 103H459.063L459.31 101.121H458.075L457.828 103H456.132L456.366 101.121H455.592V99.7695H456.548L456.886 97.1955H456.073V95.837H457.068L457.302 93.991H459.011L458.758 95.837H459.999L460.246 93.991H461.943L461.696 95.837H462.482V97.1955H461.514ZM458.244 99.7695H459.479L459.817 97.1955H458.582L458.244 99.7695ZM477.104 97.1955L476.779 99.7695H477.591V101.121H476.597L476.35 103H474.653L474.9 101.121H473.665L473.418 103H471.722L471.956 101.121H471.182V99.7695H472.138L472.476 97.1955H471.663V95.837H472.658L472.892 93.991H474.601L474.348 95.837H475.589L475.836 93.991H477.533L477.286 95.837H478.072V97.1955H477.104ZM473.834 99.7695H475.069L475.407 97.1955H474.172L473.834 99.7695ZM48.383 114.195L48.058 116.769H48.8705V118.121H47.876L47.629 120H45.9325L46.1795 118.121H44.9445L44.6975 120H43.001L43.235 118.121H42.4615V116.769H43.417L43.755 114.195H42.9425V112.837H43.937L44.171 110.991H45.8805L45.627 112.837H46.8685L47.1155 110.991H48.812L48.565 112.837H49.3515V114.195H48.383ZM45.1135 116.769H46.3485L46.6865 114.195H45.4515L45.1135 116.769ZM56.1779 114.195L55.8529 116.769H56.6654V118.121H55.6709L55.4239 120H53.7274L53.9744 118.121H52.7394L52.4924 120H50.7959L51.0299 118.121H50.2564V116.769H51.2119L51.5499 114.195H50.7374V112.837H51.7319L51.9659 110.991H53.6754L53.4219 112.837H54.6634L54.9104 110.991H56.6069L56.3599 112.837H57.1464V114.195H56.1779ZM52.9084 116.769H54.1434L54.4814 114.195H53.2464L52.9084 116.769ZM63.9728 114.195L63.6478 116.769H64.4603V118.121H63.4658L63.2188 120H61.5223L61.7693 118.121H60.5343L60.2873 120H58.5908L58.8248 118.121H58.0513V116.769H59.0068L59.3448 114.195H58.5323V112.837H59.5268L59.7608 110.991H61.4703L61.2168 112.837H62.4583L62.7053 110.991H64.4018L64.1548 112.837H64.9413V114.195H63.9728ZM60.7033 116.769H61.9383L62.2763 114.195H61.0413L60.7033 116.769ZM71.7678 114.195L71.4428 116.769H72.2553V118.121H71.2608L71.0138 120H69.3173L69.5643 118.121H68.3293L68.0823 120H66.3858L66.6198 118.121H65.8463V116.769H66.8018L67.1398 114.195H66.3273V112.837H67.3218L67.5558 110.991H69.2653L69.0118 112.837H70.2533L70.5003 110.991H72.1968L71.9498 112.837H72.7363V114.195H71.7678ZM68.4983 116.769H69.7333L70.0713 114.195H68.8363L68.4983 116.769ZM79.5627 114.195L79.2377 116.769H80.0502V118.121H79.0557L78.8087 120H77.1122L77.3592 118.121H76.1242L75.8772 120H74.1807L74.4147 118.121H73.6412V116.769H74.5967L74.9347 114.195H74.1222V112.837H75.1167L75.3507 110.991H77.0602L76.8067 112.837H78.0482L78.2952 110.991H79.9917L79.7447 112.837H80.5312V114.195H79.5627ZM76.2932 116.769H77.5282L77.8662 114.195H76.6312L76.2932 116.769ZM118.537 114.195L118.212 116.769H119.025V118.121H118.03L117.783 120H116.087L116.334 118.121H115.099L114.852 120H113.155L113.389 118.121H112.616V116.769H113.571L113.909 114.195H113.097V112.837H114.091L114.325 110.991H116.035L115.781 112.837H117.023L117.27 110.991H118.966L118.719 112.837H119.506V114.195H118.537ZM115.268 116.769H116.503L116.841 114.195H115.606L115.268 116.769ZM141.922 114.195L141.597 116.769H142.41V118.121H141.415L141.168 120H139.472L139.719 118.121H138.484L138.237 120H136.54L136.774 118.121H136.001V116.769H136.956L137.294 114.195H136.482V112.837H137.476L137.71 110.991H139.42L139.166 112.837H140.408L140.655 110.991H142.351L142.104 112.837H142.891V114.195H141.922ZM138.653 116.769H139.888L140.226 114.195H138.991L138.653 116.769ZM149.717 114.195L149.392 116.769H150.204V118.121H149.21L148.963 120H147.266L147.513 118.121H146.278L146.031 120H144.335L144.569 118.121H143.795V116.769H144.751L145.089 114.195H144.276V112.837H145.271L145.505 110.991H147.214L146.961 112.837H148.202L148.449 110.991H150.146L149.899 112.837H150.685V114.195H149.717ZM146.447 116.769H147.682L148.02 114.195H146.785L146.447 116.769ZM157.512 114.195L157.187 116.769H157.999V118.121H157.005L156.758 120H155.061L155.308 118.121H154.073L153.826 120H152.13L152.364 118.121H151.59V116.769H152.546L152.884 114.195H152.071V112.837H153.066L153.3 110.991H155.009L154.756 112.837H155.997L156.244 110.991H157.941L157.694 112.837H158.48V114.195H157.512ZM154.242 116.769H155.477L155.815 114.195H154.58L154.242 116.769ZM165.307 114.195L164.982 116.769H165.794V118.121H164.8L164.553 120H162.856L163.103 118.121H161.868L161.621 120H159.925L160.159 118.121H159.385V116.769H160.341L160.679 114.195H159.866V112.837H160.861L161.095 110.991H162.804L162.551 112.837H163.792L164.039 110.991H165.736L165.489 112.837H166.275V114.195H165.307ZM162.037 116.769H163.272L163.61 114.195H162.375L162.037 116.769ZM173.102 114.195L172.777 116.769H173.589V118.121H172.595L172.348 120H170.651L170.898 118.121H169.663L169.416 120H167.72L167.954 118.121H167.18V116.769H168.136L168.474 114.195H167.661V112.837H168.656L168.89 110.991H170.599L170.346 112.837H171.587L171.834 110.991H173.531L173.284 112.837H174.07V114.195H173.102ZM169.832 116.769H171.067L171.405 114.195H170.17L169.832 116.769ZM180.897 114.195L180.572 116.769H181.384V118.121H180.39L180.143 120H178.446L178.693 118.121H177.458L177.211 120H175.515L175.749 118.121H174.975V116.769H175.931L176.269 114.195H175.456V112.837H176.451L176.685 110.991H178.394L178.141 112.837H179.382L179.629 110.991H181.326L181.079 112.837H181.865V114.195H180.897ZM177.627 116.769H178.862L179.2 114.195H177.965L177.627 116.769ZM204.281 114.195L203.956 116.769H204.769V118.121H203.774L203.527 120H201.831L202.078 118.121H200.843L200.596 120H198.899L199.133 118.121H198.36V116.769H199.315L199.653 114.195H198.841V112.837H199.835L200.069 110.991H201.779L201.525 112.837H202.767L203.014 110.991H204.71L204.463 112.837H205.25V114.195H204.281ZM201.012 116.769H202.247L202.585 114.195H201.35L201.012 116.769ZM251.051 114.195L250.726 116.769H251.538V118.121H250.544L250.297 120H248.6L248.847 118.121H247.612L247.365 120H245.669L245.903 118.121H245.129V116.769H246.085L246.423 114.195H245.61V112.837H246.605L246.839 110.991H248.548L248.295 112.837H249.536L249.783 110.991H251.48L251.233 112.837H252.019V114.195H251.051ZM247.781 116.769H249.016L249.354 114.195H248.119L247.781 116.769ZM290.026 114.195L289.701 116.769H290.513V118.121H289.519L289.272 120H287.575L287.822 118.121H286.587L286.34 120H284.644L284.878 118.121H284.104V116.769H285.06L285.398 114.195H284.585V112.837H285.58L285.814 110.991H287.523L287.27 112.837H288.511L288.758 110.991H290.455L290.208 112.837H290.994V114.195H290.026ZM286.756 116.769H287.991L288.329 114.195H287.094L286.756 116.769ZM352.385 114.195L352.06 116.769H352.872V118.121H351.878L351.631 120H349.934L350.181 118.121H348.946L348.699 120H347.003L347.237 118.121H346.463V116.769H347.419L347.757 114.195H346.944V112.837H347.939L348.173 110.991H349.882L349.629 112.837H350.87L351.117 110.991H352.814L352.567 112.837H353.353V114.195H352.385ZM349.115 116.769H350.35L350.688 114.195H349.453L349.115 116.769ZM399.154 114.195L398.829 116.769H399.642V118.121H398.647L398.4 120H396.704L396.951 118.121H395.716L395.469 120H393.772L394.006 118.121H393.233V116.769H394.188L394.526 114.195H393.714V112.837H394.708L394.942 110.991H396.652L396.398 112.837H397.64L397.887 110.991H399.583L399.336 112.837H400.123V114.195H399.154ZM395.885 116.769H397.12L397.458 114.195H396.223L395.885 116.769ZM414.744 114.195L414.419 116.769H415.232V118.121H414.237L413.99 120H412.294L412.541 118.121H411.306L411.059 120H409.362L409.596 118.121H408.823V116.769H409.778L410.116 114.195H409.304V112.837H410.298L410.532 110.991H412.242L411.988 112.837H413.23L413.477 110.991H415.173L414.926 112.837H415.713V114.195H414.744ZM411.475 116.769H412.71L413.048 114.195H411.813L411.475 116.769ZM461.514 114.195L461.189 116.769H462.001V118.121H461.007L460.76 120H459.063L459.31 118.121H458.075L457.828 120H456.132L456.366 118.121H455.592V116.769H456.548L456.886 114.195H456.073V112.837H457.068L457.302 110.991H459.011L458.758 112.837H459.999L460.246 110.991H461.943L461.696 112.837H462.482V114.195H461.514ZM458.244 116.769H459.479L459.817 114.195H458.582L458.244 116.769ZM477.104 114.195L476.779 116.769H477.591V118.121H476.597L476.35 120H474.653L474.9 118.121H473.665L473.418 120H471.722L471.956 118.121H471.182V116.769H472.138L472.476 114.195H471.663V112.837H472.658L472.892 110.991H474.601L474.348 112.837H475.589L475.836 110.991H477.533L477.286 112.837H478.072V114.195H477.104ZM473.834 116.769H475.069L475.407 114.195H474.172L473.834 116.769ZM484.899 114.195L484.574 116.769H485.386V118.121H484.392L484.145 120H482.448L482.695 118.121H481.46L481.213 120H479.517L479.751 118.121H478.977V116.769H479.933L480.271 114.195H479.458V112.837H480.453L480.687 110.991H482.396L482.143 112.837H483.384L483.631 110.991H485.328L485.081 112.837H485.867V114.195H484.899ZM481.629 116.769H482.864L483.202 114.195H481.967L481.629 116.769ZM492.694 114.195L492.369 116.769H493.181V118.121H492.187L491.94 120H490.243L490.49 118.121H489.255L489.008 120H487.312L487.546 118.121H486.772V116.769H487.728L488.066 114.195H487.253V112.837H488.248L488.482 110.991H490.191L489.938 112.837H491.179L491.426 110.991H493.123L492.876 112.837H493.662V114.195H492.694ZM489.424 116.769H490.659L490.997 114.195H489.762L489.424 116.769ZM500.488 114.195L500.163 116.769H500.976V118.121H499.981L499.734 120H498.038L498.285 118.121H497.05L496.803 120H495.106L495.34 118.121H494.567V116.769H495.522L495.86 114.195H495.048V112.837H496.042L496.276 110.991H497.986L497.732 112.837H498.974L499.221 110.991H500.917L500.67 112.837H501.457V114.195H500.488ZM497.219 116.769H498.454L498.792 114.195H497.557L497.219 116.769ZM508.283 114.195L507.958 116.769H508.771V118.121H507.776L507.529 120H505.833L506.08 118.121H504.845L504.598 120H502.901L503.135 118.121H502.362V116.769H503.317L503.655 114.195H502.843V112.837H503.837L504.071 110.991H505.781L505.527 112.837H506.769L507.016 110.991H508.712L508.465 112.837H509.252V114.195H508.283ZM505.014 116.769H506.249L506.587 114.195H505.352L505.014 116.769ZM48.383 131.195L48.058 133.769H48.8705V135.121H47.876L47.629 137H45.9325L46.1795 135.121H44.9445L44.6975 137H43.001L43.235 135.121H42.4615V133.769H43.417L43.755 131.195H42.9425V129.837H43.937L44.171 127.991H45.8805L45.627 129.837H46.8685L47.1155 127.991H48.812L48.565 129.837H49.3515V131.195H48.383ZM45.1135 133.769H46.3485L46.6865 131.195H45.4515L45.1135 133.769ZM118.537 131.195L118.212 133.769H119.025V135.121H118.03L117.783 137H116.087L116.334 135.121H115.099L114.852 137H113.155L113.389 135.121H112.616V133.769H113.571L113.909 131.195H113.097V129.837H114.091L114.325 127.991H116.035L115.781 129.837H117.023L117.27 127.991H118.966L118.719 129.837H119.506V131.195H118.537ZM115.268 133.769H116.503L116.841 131.195H115.606L115.268 133.769ZM141.922 131.195L141.597 133.769H142.41V135.121H141.415L141.168 137H139.472L139.719 135.121H138.484L138.237 137H136.54L136.774 135.121H136.001V133.769H136.956L137.294 131.195H136.482V129.837H137.476L137.71 127.991H139.42L139.166 129.837H140.408L140.655 127.991H142.351L142.104 129.837H142.891V131.195H141.922ZM138.653 133.769H139.888L140.226 131.195H138.991L138.653 133.769ZM173.102 131.195L172.777 133.769H173.589V135.121H172.595L172.348 137H170.651L170.898 135.121H169.663L169.416 137H167.72L167.954 135.121H167.18V133.769H168.136L168.474 131.195H167.661V129.837H168.656L168.89 127.991H170.599L170.346 129.837H171.587L171.834 127.991H173.531L173.284 129.837H174.07V131.195H173.102ZM169.832 133.769H171.067L171.405 131.195H170.17L169.832 133.769ZM204.281 131.195L203.956 133.769H204.769V135.121H203.774L203.527 137H201.831L202.078 135.121H200.843L200.596 137H198.899L199.133 135.121H198.36V133.769H199.315L199.653 131.195H198.841V129.837H199.835L200.069 127.991H201.779L201.525 129.837H202.767L203.014 127.991H204.71L204.463 129.837H205.25V131.195H204.281ZM201.012 133.769H202.247L202.585 131.195H201.35L201.012 133.769ZM212.076 131.195L211.751 133.769H212.564V135.121H211.569L211.322 137H209.626L209.873 135.121H208.638L208.391 137H206.694L206.928 135.121H206.155V133.769H207.11L207.448 131.195H206.636V129.837H207.63L207.864 127.991H209.574L209.32 129.837H210.562L210.809 127.991H212.505L212.258 129.837H213.045V131.195H212.076ZM208.807 133.769H210.042L210.38 131.195H209.145L208.807 133.769ZM219.871 131.195L219.546 133.769H220.359V135.121H219.364L219.117 137H217.421L217.668 135.121H216.433L216.186 137H214.489L214.723 135.121H213.95V133.769H214.905L215.243 131.195H214.431V129.837H215.425L215.659 127.991H217.369L217.115 129.837H218.357L218.604 127.991H220.3L220.053 129.837H220.84V131.195H219.871ZM216.602 133.769H217.837L218.175 131.195H216.94L216.602 133.769ZM227.666 131.195L227.341 133.769H228.154V135.121H227.159L226.912 137H225.216L225.463 135.121H224.228L223.981 137H222.284L222.518 135.121H221.745V133.769H222.7L223.038 131.195H222.226V129.837H223.22L223.454 127.991H225.164L224.91 129.837H226.152L226.399 127.991H228.095L227.848 129.837H228.635V131.195H227.666ZM224.397 133.769H225.632L225.97 131.195H224.735L224.397 133.769ZM235.461 131.195L235.136 133.769H235.949V135.121H234.954L234.707 137H233.011L233.258 135.121H232.023L231.776 137H230.079L230.313 135.121H229.54V133.769H230.495L230.833 131.195H230.021V129.837H231.015L231.249 127.991H232.959L232.705 129.837H233.947L234.194 127.991H235.89L235.643 129.837H236.43V131.195H235.461ZM232.192 133.769H233.427L233.765 131.195H232.53L232.192 133.769ZM243.256 131.195L242.931 133.769H243.744V135.121H242.749L242.502 137H240.806L241.053 135.121H239.818L239.571 137H237.874L238.108 135.121H237.335V133.769H238.29L238.628 131.195H237.816V129.837H238.81L239.044 127.991H240.754L240.5 129.837H241.742L241.989 127.991H243.685L243.438 129.837H244.225V131.195H243.256ZM239.987 133.769H241.222L241.56 131.195H240.325L239.987 133.769ZM251.051 131.195L250.726 133.769H251.538V135.121H250.544L250.297 137H248.6L248.847 135.121H247.612L247.365 137H245.669L245.903 135.121H245.129V133.769H246.085L246.423 131.195H245.61V129.837H246.605L246.839 127.991H248.548L248.295 129.837H249.536L249.783 127.991H251.48L251.233 129.837H252.019V131.195H251.051ZM247.781 133.769H249.016L249.354 131.195H248.119L247.781 133.769ZM290.026 131.195L289.701 133.769H290.513V135.121H289.519L289.272 137H287.575L287.822 135.121H286.587L286.34 137H284.644L284.878 135.121H284.104V133.769H285.06L285.398 131.195H284.585V129.837H285.58L285.814 127.991H287.523L287.27 129.837H288.511L288.758 127.991H290.455L290.208 129.837H290.994V131.195H290.026ZM286.756 133.769H287.991L288.329 131.195H287.094L286.756 133.769ZM352.385 131.195L352.06 133.769H352.872V135.121H351.878L351.631 137H349.934L350.181 135.121H348.946L348.699 137H347.003L347.237 135.121H346.463V133.769H347.419L347.757 131.195H346.944V129.837H347.939L348.173 127.991H349.882L349.629 129.837H350.87L351.117 127.991H352.814L352.567 129.837H353.353V131.195H352.385ZM349.115 133.769H350.35L350.688 131.195H349.453L349.115 133.769ZM399.154 131.195L398.829 133.769H399.642V135.121H398.647L398.4 137H396.704L396.951 135.121H395.716L395.469 137H393.772L394.006 135.121H393.233V133.769H394.188L394.526 131.195H393.714V129.837H394.708L394.942 127.991H396.652L396.398 129.837H397.64L397.887 127.991H399.583L399.336 129.837H400.123V131.195H399.154ZM395.885 133.769H397.12L397.458 131.195H396.223L395.885 133.769ZM414.744 131.195L414.419 133.769H415.232V135.121H414.237L413.99 137H412.294L412.541 135.121H411.306L411.059 137H409.362L409.596 135.121H408.823V133.769H409.778L410.116 131.195H409.304V129.837H410.298L410.532 127.991H412.242L411.988 129.837H413.23L413.477 127.991H415.173L414.926 129.837H415.713V131.195H414.744ZM411.475 133.769H412.71L413.048 131.195H411.813L411.475 133.769ZM461.514 131.195L461.189 133.769H462.001V135.121H461.007L460.76 137H459.063L459.31 135.121H458.075L457.828 137H456.132L456.366 135.121H455.592V133.769H456.548L456.886 131.195H456.073V129.837H457.068L457.302 127.991H459.011L458.758 129.837H459.999L460.246 127.991H461.943L461.696 129.837H462.482V131.195H461.514ZM458.244 133.769H459.479L459.817 131.195H458.582L458.244 133.769ZM477.104 131.195L476.779 133.769H477.591V135.121H476.597L476.35 137H474.653L474.9 135.121H473.665L473.418 137H471.722L471.956 135.121H471.182V133.769H472.138L472.476 131.195H471.663V129.837H472.658L472.892 127.991H474.601L474.348 129.837H475.589L475.836 127.991H477.533L477.286 129.837H478.072V131.195H477.104ZM473.834 133.769H475.069L475.407 131.195H474.172L473.834 133.769ZM48.383 148.195L48.058 150.769H48.8705V152.121H47.876L47.629 154H45.9325L46.1795 152.121H44.9445L44.6975 154H43.001L43.235 152.121H42.4615V150.769H43.417L43.755 148.195H42.9425V146.837H43.937L44.171 144.991H45.8805L45.627 146.837H46.8685L47.1155 144.991H48.812L48.565 146.837H49.3515V148.195H48.383ZM45.1135 150.769H46.3485L46.6865 148.195H45.4515L45.1135 150.769ZM118.537 148.195L118.212 150.769H119.025V152.121H118.03L117.783 154H116.087L116.334 152.121H115.099L114.852 154H113.155L113.389 152.121H112.616V150.769H113.571L113.909 148.195H113.097V146.837H114.091L114.325 144.991H116.035L115.781 146.837H117.023L117.27 144.991H118.966L118.719 146.837H119.506V148.195H118.537ZM115.268 150.769H116.503L116.841 148.195H115.606L115.268 150.769ZM141.922 148.195L141.597 150.769H142.41V152.121H141.415L141.168 154H139.472L139.719 152.121H138.484L138.237 154H136.54L136.774 152.121H136.001V150.769H136.956L137.294 148.195H136.482V146.837H137.476L137.71 144.991H139.42L139.166 146.837H140.408L140.655 144.991H142.351L142.104 146.837H142.891V148.195H141.922ZM138.653 150.769H139.888L140.226 148.195H138.991L138.653 150.769ZM180.897 148.195L180.572 150.769H181.384V152.121H180.39L180.143 154H178.446L178.693 152.121H177.458L177.211 154H175.515L175.749 152.121H174.975V150.769H175.931L176.269 148.195H175.456V146.837H176.451L176.685 144.991H178.394L178.141 146.837H179.382L179.629 144.991H181.326L181.079 146.837H181.865V148.195H180.897ZM177.627 150.769H178.862L179.2 148.195H177.965L177.627 150.769ZM204.281 148.195L203.956 150.769H204.769V152.121H203.774L203.527 154H201.831L202.078 152.121H200.843L200.596 154H198.899L199.133 152.121H198.36V150.769H199.315L199.653 148.195H198.841V146.837H199.835L200.069 144.991H201.779L201.525 146.837H202.767L203.014 144.991H204.71L204.463 146.837H205.25V148.195H204.281ZM201.012 150.769H202.247L202.585 148.195H201.35L201.012 150.769ZM251.051 148.195L250.726 150.769H251.538V152.121H250.544L250.297 154H248.6L248.847 152.121H247.612L247.365 154H245.669L245.903 152.121H245.129V150.769H246.085L246.423 148.195H245.61V146.837H246.605L246.839 144.991H248.548L248.295 146.837H249.536L249.783 144.991H251.48L251.233 146.837H252.019V148.195H251.051ZM247.781 150.769H249.016L249.354 148.195H248.119L247.781 150.769ZM290.026 148.195L289.701 150.769H290.513V152.121H289.519L289.272 154H287.575L287.822 152.121H286.587L286.34 154H284.644L284.878 152.121H284.104V150.769H285.06L285.398 148.195H284.585V146.837H285.58L285.814 144.991H287.523L287.27 146.837H288.511L288.758 144.991H290.455L290.208 146.837H290.994V148.195H290.026ZM286.756 150.769H287.991L288.329 148.195H287.094L286.756 150.769ZM336.795 148.195L336.47 150.769H337.283V152.121H336.288L336.041 154H334.345L334.592 152.121H333.357L333.11 154H331.413L331.647 152.121H330.874V150.769H331.829L332.167 148.195H331.355V146.837H332.349L332.583 144.991H334.293L334.039 146.837H335.281L335.528 144.991H337.224L336.977 146.837H337.764V148.195H336.795ZM333.526 150.769H334.761L335.099 148.195H333.864L333.526 150.769ZM352.385 148.195L352.06 150.769H352.872V152.121H351.878L351.631 154H349.934L350.181 152.121H348.946L348.699 154H347.003L347.237 152.121H346.463V150.769H347.419L347.757 148.195H346.944V146.837H347.939L348.173 144.991H349.882L349.629 146.837H350.87L351.117 144.991H352.814L352.567 146.837H353.353V148.195H352.385ZM349.115 150.769H350.35L350.688 148.195H349.453L349.115 150.769ZM399.154 148.195L398.829 150.769H399.642V152.121H398.647L398.4 154H396.704L396.951 152.121H395.716L395.469 154H393.772L394.006 152.121H393.233V150.769H394.188L394.526 148.195H393.714V146.837H394.708L394.942 144.991H396.652L396.398 146.837H397.64L397.887 144.991H399.583L399.336 146.837H400.123V148.195H399.154ZM395.885 150.769H397.12L397.458 148.195H396.223L395.885 150.769ZM414.744 148.195L414.419 150.769H415.232V152.121H414.237L413.99 154H412.294L412.541 152.121H411.306L411.059 154H409.362L409.596 152.121H408.823V150.769H409.778L410.116 148.195H409.304V146.837H410.298L410.532 144.991H412.242L411.988 146.837H413.23L413.477 144.991H415.173L414.926 146.837H415.713V148.195H414.744ZM411.475 150.769H412.71L413.048 148.195H411.813L411.475 150.769ZM461.514 148.195L461.189 150.769H462.001V152.121H461.007L460.76 154H459.063L459.31 152.121H458.075L457.828 154H456.132L456.366 152.121H455.592V150.769H456.548L456.886 148.195H456.073V146.837H457.068L457.302 144.991H459.011L458.758 146.837H459.999L460.246 144.991H461.943L461.696 146.837H462.482V148.195H461.514ZM458.244 150.769H459.479L459.817 148.195H458.582L458.244 150.769ZM477.104 148.195L476.779 150.769H477.591V152.121H476.597L476.35 154H474.653L474.9 152.121H473.665L473.418 154H471.722L471.956 152.121H471.182V150.769H472.138L472.476 148.195H471.663V146.837H472.658L472.892 144.991H474.601L474.348 146.837H475.589L475.836 144.991H477.533L477.286 146.837H478.072V148.195H477.104ZM473.834 150.769H475.069L475.407 148.195H474.172L473.834 150.769ZM48.383 165.195L48.058 167.769H48.8705V169.121H47.876L47.629 171H45.9325L46.1795 169.121H44.9445L44.6975 171H43.001L43.235 169.121H42.4615V167.769H43.417L43.755 165.195H42.9425V163.837H43.937L44.171 161.991H45.8805L45.627 163.837H46.8685L47.1155 161.991H48.812L48.565 163.837H49.3515V165.195H48.383ZM45.1135 167.769H46.3485L46.6865 165.195H45.4515L45.1135 167.769ZM127.301 165.195H126.332L126.007 167.769H126.82V169.121H125.825L125.578 171H123.882L124.129 169.121H122.894L122.647 171H120.95L121.184 169.121H118.025L117.778 171H116.082L116.329 169.121H115.094L114.847 171H113.15L113.384 169.121H110.225L109.978 171H108.282L108.529 169.121H107.294L107.047 171H105.35L105.584 169.121H104.811V167.769H105.766L106.104 165.195H105.292V163.837H106.286L106.52 161.991H108.23L107.976 163.837H109.218L109.465 161.991H111.161L110.914 163.837H114.086L114.32 161.991H116.03L115.776 163.837H117.018L117.265 161.991H118.961L118.714 163.837H121.886L122.12 161.991H123.83L123.576 163.837H124.818L125.065 161.991H126.761L126.514 163.837H127.301V165.195ZM108.698 167.769L109.036 165.195H107.801L107.463 167.769H108.698ZM113.566 167.769L113.904 165.195H110.732L110.407 167.769H113.566ZM116.498 167.769L116.836 165.195H115.601L115.263 167.769H116.498ZM121.366 167.769L121.704 165.195H118.532L118.207 167.769H121.366ZM124.298 167.769L124.636 165.195H123.401L123.063 167.769H124.298ZM141.922 165.195L141.597 167.769H142.41V169.121H141.415L141.168 171H139.472L139.719 169.121H138.484L138.237 171H136.54L136.774 169.121H136.001V167.769H136.956L137.294 165.195H136.482V163.837H137.476L137.71 161.991H139.42L139.166 163.837H140.408L140.655 161.991H142.351L142.104 163.837H142.891V165.195H141.922ZM138.653 167.769H139.888L140.226 165.195H138.991L138.653 167.769ZM188.692 165.195L188.367 167.769H189.179V169.121H188.185L187.938 171H186.241L186.488 169.121H185.253L185.006 171H183.31L183.544 169.121H182.77V167.769H183.726L184.064 165.195H183.251V163.837H184.246L184.48 161.991H186.189L185.936 163.837H187.177L187.424 161.991H189.121L188.874 163.837H189.66V165.195H188.692ZM185.422 167.769H186.657L186.995 165.195H185.76L185.422 167.769ZM204.281 165.195L203.956 167.769H204.769V169.121H203.774L203.527 171H201.831L202.078 169.121H200.843L200.596 171H198.899L199.133 169.121H198.36V167.769H199.315L199.653 165.195H198.841V163.837H199.835L200.069 161.991H201.779L201.525 163.837H202.767L203.014 161.991H204.71L204.463 163.837H205.25V165.195H204.281ZM201.012 167.769H202.247L202.585 165.195H201.35L201.012 167.769ZM251.051 165.195L250.726 167.769H251.538V169.121H250.544L250.297 171H248.6L248.847 169.121H247.612L247.365 171H245.669L245.903 169.121H245.129V167.769H246.085L246.423 165.195H245.61V163.837H246.605L246.839 161.991H248.548L248.295 163.837H249.536L249.783 161.991H251.48L251.233 163.837H252.019V165.195H251.051ZM247.781 167.769H249.016L249.354 165.195H248.119L247.781 167.769ZM297.821 165.195L297.496 167.769H298.308V169.121H297.314L297.067 171H295.37L295.617 169.121H294.382L294.135 171H292.439L292.673 169.121H291.899V167.769H292.855L293.193 165.195H292.38V163.837H293.375L293.609 161.991H295.318L295.065 163.837H296.306L296.553 161.991H298.25L298.002 163.837H298.789V165.195H297.821ZM294.551 167.769H295.786L296.124 165.195H294.889L294.551 167.769ZM305.615 165.195L305.29 167.769H306.103V169.121H305.108L304.861 171H303.165L303.412 169.121H302.177L301.93 171H300.233L300.467 169.121H299.694V167.769H300.649L300.987 165.195H300.175V163.837H301.169L301.403 161.991H303.113L302.859 163.837H304.101L304.348 161.991H306.044L305.797 163.837H306.584V165.195H305.615ZM302.346 167.769H303.581L303.919 165.195H302.684L302.346 167.769ZM313.41 165.195L313.085 167.769H313.898V169.121H312.903L312.656 171H310.96L311.207 169.121H309.972L309.725 171H308.028L308.262 169.121H307.489V167.769H308.444L308.782 165.195H307.97V163.837H308.964L309.198 161.991H310.908L310.654 163.837H311.896L312.143 161.991H313.839L313.592 163.837H314.379V165.195H313.41ZM310.141 167.769H311.376L311.714 165.195H310.479L310.141 167.769ZM321.205 165.195L320.88 167.769H321.693V169.121H320.698L320.451 171H318.755L319.002 169.121H317.767L317.52 171H315.823L316.057 169.121H315.284V167.769H316.239L316.577 165.195H315.765V163.837H316.759L316.993 161.991H318.703L318.449 163.837H319.691L319.938 161.991H321.634L321.387 163.837H322.174V165.195H321.205ZM317.936 167.769H319.171L319.509 165.195H318.274L317.936 167.769ZM329 165.195L328.675 167.769H329.488V169.121H328.493L328.246 171H326.55L326.797 169.121H325.562L325.315 171H323.618L323.852 169.121H323.079V167.769H324.034L324.372 165.195H323.56V163.837H324.554L324.788 161.991H326.498L326.244 163.837H327.486L327.733 161.991H329.429L329.182 163.837H329.969V165.195H329ZM325.731 167.769H326.966L327.304 165.195H326.069L325.731 167.769ZM352.385 165.195L352.06 167.769H352.872V169.121H351.878L351.631 171H349.934L350.181 169.121H348.946L348.699 171H347.003L347.237 169.121H346.463V167.769H347.419L347.757 165.195H346.944V163.837H347.939L348.173 161.991H349.882L349.629 163.837H350.87L351.117 161.991H352.814L352.567 163.837H353.353V165.195H352.385ZM349.115 167.769H350.35L350.688 165.195H349.453L349.115 167.769ZM360.18 165.195L359.855 167.769H360.667V169.121H359.673L359.426 171H357.729L357.976 169.121H356.741L356.494 171H354.798L355.032 169.121H354.258V167.769H355.214L355.552 165.195H354.739V163.837H355.734L355.968 161.991H357.677L357.424 163.837H358.665L358.912 161.991H360.609L360.362 163.837H361.148V165.195H360.18ZM356.91 167.769H358.145L358.483 165.195H357.248L356.91 167.769ZM367.975 165.195L367.65 167.769H368.462V169.121H367.468L367.221 171H365.524L365.771 169.121H364.536L364.289 171H362.593L362.827 169.121H362.053V167.769H363.009L363.347 165.195H362.534V163.837H363.529L363.763 161.991H365.472L365.219 163.837H366.46L366.707 161.991H368.404L368.157 163.837H368.943V165.195H367.975ZM364.705 167.769H365.94L366.278 165.195H365.043L364.705 167.769ZM375.77 165.195L375.445 167.769H376.257V169.121H375.263L375.016 171H373.319L373.566 169.121H372.331L372.084 171H370.388L370.622 169.121H369.848V167.769H370.804L371.142 165.195H370.329V163.837H371.324L371.558 161.991H373.267L373.014 163.837H374.255L374.502 161.991H376.199L375.952 163.837H376.738V165.195H375.77ZM372.5 167.769H373.735L374.073 165.195H372.838L372.5 167.769ZM383.565 165.195L383.24 167.769H384.052V169.121H383.058L382.811 171H381.114L381.361 169.121H380.126L379.879 171H378.183L378.417 169.121H377.643V167.769H378.599L378.937 165.195H378.124V163.837H379.119L379.353 161.991H381.062L380.809 163.837H382.05L382.297 161.991H383.994L383.747 163.837H384.533V165.195H383.565ZM380.295 167.769H381.53L381.868 165.195H380.633L380.295 167.769ZM391.36 165.195L391.035 167.769H391.847V169.121H390.853L390.606 171H388.909L389.156 169.121H387.921L387.674 171H385.978L386.212 169.121H385.438V167.769H386.394L386.732 165.195H385.919V163.837H386.914L387.148 161.991H388.857L388.604 163.837H389.845L390.092 161.991H391.789L391.542 163.837H392.328V165.195H391.36ZM388.09 167.769H389.325L389.663 165.195H388.428L388.09 167.769ZM399.154 165.195L398.829 167.769H399.642V169.121H398.647L398.4 171H396.704L396.951 169.121H395.716L395.469 171H393.772L394.006 169.121H393.233V167.769H394.188L394.526 165.195H393.714V163.837H394.708L394.942 161.991H396.652L396.398 163.837H397.64L397.887 161.991H399.583L399.336 163.837H400.123V165.195H399.154ZM395.885 167.769H397.12L397.458 165.195H396.223L395.885 167.769ZM414.744 165.195L414.419 167.769H415.232V169.121H414.237L413.99 171H412.294L412.541 169.121H411.306L411.059 171H409.362L409.596 169.121H408.823V167.769H409.778L410.116 165.195H409.304V163.837H410.298L410.532 161.991H412.242L411.988 163.837H413.23L413.477 161.991H415.173L414.926 163.837H415.713V165.195H414.744ZM411.475 167.769H412.71L413.048 165.195H411.813L411.475 167.769ZM422.539 165.195L422.214 167.769H423.027V169.121H422.032L421.785 171H420.089L420.336 169.121H419.101L418.854 171H417.157L417.391 169.121H416.618V167.769H417.573L417.911 165.195H417.099V163.837H418.093L418.327 161.991H420.037L419.783 163.837H421.025L421.272 161.991H422.968L422.721 163.837H423.508V165.195H422.539ZM419.27 167.769H420.505L420.843 165.195H419.608L419.27 167.769ZM430.334 165.195L430.009 167.769H430.822V169.121H429.827L429.58 171H427.884L428.131 169.121H426.896L426.649 171H424.952L425.186 169.121H424.413V167.769H425.368L425.706 165.195H424.894V163.837H425.888L426.122 161.991H427.832L427.578 163.837H428.82L429.067 161.991H430.763L430.516 163.837H431.303V165.195H430.334ZM427.065 167.769H428.3L428.638 165.195H427.403L427.065 167.769ZM438.129 165.195L437.804 167.769H438.617V169.121H437.622L437.375 171H435.679L435.926 169.121H434.691L434.444 171H432.747L432.981 169.121H432.208V167.769H433.163L433.501 165.195H432.689V163.837H433.683L433.917 161.991H435.627L435.373 163.837H436.615L436.862 161.991H438.558L438.311 163.837H439.098V165.195H438.129ZM434.86 167.769H436.095L436.433 165.195H435.198L434.86 167.769ZM445.924 165.195L445.599 167.769H446.412V169.121H445.417L445.17 171H443.474L443.721 169.121H442.486L442.239 171H440.542L440.776 169.121H440.003V167.769H440.958L441.296 165.195H440.484V163.837H441.478L441.712 161.991H443.422L443.168 163.837H444.41L444.657 161.991H446.353L446.106 163.837H446.893V165.195H445.924ZM442.655 167.769H443.89L444.228 165.195H442.993L442.655 167.769ZM453.719 165.195L453.394 167.769H454.206V169.121H453.212L452.965 171H451.268L451.515 169.121H450.28L450.033 171H448.337L448.571 169.121H447.797V167.769H448.753L449.091 165.195H448.278V163.837H449.273L449.507 161.991H451.216L450.963 163.837H452.204L452.451 161.991H454.148L453.901 163.837H454.687V165.195H453.719ZM450.449 167.769H451.684L452.022 165.195H450.787L450.449 167.769ZM477.104 165.195L476.779 167.769H477.591V169.121H476.597L476.35 171H474.653L474.9 169.121H473.665L473.418 171H471.722L471.956 169.121H471.182V167.769H472.138L472.476 165.195H471.663V163.837H472.658L472.892 161.991H474.601L474.348 163.837H475.589L475.836 161.991H477.533L477.286 163.837H478.072V165.195H477.104ZM473.834 167.769H475.069L475.407 165.195H474.172L473.834 167.769ZM484.899 165.195L484.574 167.769H485.386V169.121H484.392L484.145 171H482.448L482.695 169.121H481.46L481.213 171H479.517L479.751 169.121H478.977V167.769H479.933L480.271 165.195H479.458V163.837H480.453L480.687 161.991H482.396L482.143 163.837H483.384L483.631 161.991H485.328L485.081 163.837H485.867V165.195H484.899ZM481.629 167.769H482.864L483.202 165.195H481.967L481.629 167.769ZM492.694 165.195L492.369 167.769H493.181V169.121H492.187L491.94 171H490.243L490.49 169.121H489.255L489.008 171H487.312L487.546 169.121H486.772V167.769H487.728L488.066 165.195H487.253V163.837H488.248L488.482 161.991H490.191L489.938 163.837H491.179L491.426 161.991H493.123L492.876 163.837H493.662V165.195H492.694ZM489.424 167.769H490.659L490.997 165.195H489.762L489.424 167.769ZM500.488 165.195L500.163 167.769H500.976V169.121H499.981L499.734 171H498.038L498.285 169.121H497.05L496.803 171H495.106L495.34 169.121H494.567V167.769H495.522L495.86 165.195H495.048V163.837H496.042L496.276 161.991H497.986L497.732 163.837H498.974L499.221 161.991H500.917L500.67 163.837H501.457V165.195H500.488ZM497.219 167.769H498.454L498.792 165.195H497.557L497.219 167.769ZM508.283 165.195L507.958 167.769H508.771V169.121H507.776L507.529 171H505.833L506.08 169.121H504.845L504.598 171H502.901L503.135 169.121H502.362V167.769H503.317L503.655 165.195H502.843V163.837H503.837L504.071 161.991H505.781L505.527 163.837H506.769L507.016 161.991H508.712L508.465 163.837H509.252V165.195H508.283ZM505.014 167.769H506.249L506.587 165.195H505.352L505.014 167.769ZM516.078 165.195L515.753 167.769H516.566V169.121H515.571L515.324 171H513.628L513.875 169.121H512.64L512.393 171H510.696L510.93 169.121H510.157V167.769H511.112L511.45 165.195H510.638V163.837H511.632L511.866 161.991H513.576L513.322 163.837H514.564L514.811 161.991H516.507L516.26 163.837H517.047V165.195H516.078ZM512.809 167.769H514.044L514.382 165.195H513.147L512.809 167.769ZM523.873 165.195L523.548 167.769H524.361V169.121H523.366L523.119 171H521.423L521.67 169.121H520.435L520.188 171H518.491L518.725 169.121H517.952V167.769H518.907L519.245 165.195H518.433V163.837H519.427L519.661 161.991H521.371L521.117 163.837H522.359L522.606 161.991H524.302L524.055 163.837H524.842V165.195H523.873ZM520.604 167.769H521.839L522.177 165.195H520.942L520.604 167.769Z" fill="#0BC512"/>
<path d="M30.8555 239.762H31.3477V242.457H31.1484C30.2578 242.457 29.4648 242.59 28.7695 242.855C28.0742 243.121 27.4844 243.5 27 243.992C26.5234 244.477 26.1562 245.062 25.8984 245.75C25.6484 246.438 25.5234 247.207 25.5234 248.059V250.895C25.5234 251.504 25.582 252.043 25.6992 252.512C25.8242 252.973 26 253.359 26.2266 253.672C26.4609 253.977 26.7344 254.207 27.0469 254.363C27.3594 254.512 27.7109 254.586 28.1016 254.586C28.4688 254.586 28.8008 254.508 29.0977 254.352C29.4023 254.195 29.6602 253.977 29.8711 253.695C30.0898 253.406 30.2539 253.07 30.3633 252.688C30.4805 252.297 30.5391 251.871 30.5391 251.41C30.5391 250.949 30.4805 250.523 30.3633 250.133C30.2539 249.742 30.0898 249.406 29.8711 249.125C29.6523 248.836 29.3867 248.613 29.0742 248.457C28.7617 248.301 28.4102 248.223 28.0195 248.223C27.4883 248.223 27.0195 248.348 26.6133 248.598C26.2148 248.84 25.9023 249.152 25.6758 249.535C25.4492 249.918 25.3281 250.32 25.3125 250.742L24.293 250.086C24.3164 249.484 24.4414 248.914 24.668 248.375C24.9023 247.836 25.2227 247.359 25.6289 246.945C26.043 246.523 26.5391 246.195 27.1172 245.961C27.6953 245.719 28.3477 245.598 29.0742 245.598C29.8711 245.598 30.5703 245.75 31.1719 246.055C31.7812 246.359 32.2891 246.777 32.6953 247.309C33.1016 247.84 33.4062 248.453 33.6094 249.148C33.8125 249.844 33.9141 250.586 33.9141 251.375C33.9141 252.203 33.7773 252.973 33.5039 253.684C33.2383 254.395 32.8516 255.016 32.3438 255.547C31.8438 256.078 31.2422 256.492 30.5391 256.789C29.8359 257.086 29.0469 257.234 28.1719 257.234C27.2656 257.234 26.4414 257.07 25.6992 256.742C24.9648 256.406 24.332 255.938 23.8008 255.336C23.2695 254.734 22.8594 254.02 22.5703 253.191C22.2891 252.363 22.1484 251.457 22.1484 250.473V249.16C22.1484 247.785 22.3477 246.527 22.7461 245.387C23.1523 244.238 23.7344 243.246 24.4922 242.41C25.25 241.566 26.1641 240.914 27.2344 240.453C28.3047 239.992 29.5117 239.762 30.8555 239.762ZM39.1055 249.23L36.4102 248.586L37.3828 239.938H46.9688V242.668H40.1602L39.7383 246.453C39.9648 246.32 40.3086 246.18 40.7695 246.031C41.2305 245.875 41.7461 245.797 42.3164 245.797C43.1445 245.797 43.8789 245.926 44.5195 246.184C45.1602 246.441 45.7031 246.816 46.1484 247.309C46.6016 247.801 46.9453 248.402 47.1797 249.113C47.4141 249.824 47.5312 250.629 47.5312 251.527C47.5312 252.285 47.4141 253.008 47.1797 253.695C46.9453 254.375 46.5898 254.984 46.1133 255.523C45.6367 256.055 45.0391 256.473 44.3203 256.777C43.6016 257.082 42.75 257.234 41.7656 257.234C41.0312 257.234 40.3203 257.125 39.6328 256.906C38.9531 256.688 38.3398 256.363 37.793 255.934C37.2539 255.504 36.8203 254.984 36.4922 254.375C36.1719 253.758 36.0039 253.055 35.9883 252.266H39.3398C39.3867 252.75 39.5117 253.168 39.7148 253.52C39.9258 253.863 40.2031 254.129 40.5469 254.316C40.8906 254.504 41.293 254.598 41.7539 254.598C42.1836 254.598 42.5508 254.516 42.8555 254.352C43.1602 254.188 43.4062 253.961 43.5938 253.672C43.7812 253.375 43.918 253.031 44.0039 252.641C44.0977 252.242 44.1445 251.812 44.1445 251.352C44.1445 250.891 44.0898 250.473 43.9805 250.098C43.8711 249.723 43.7031 249.398 43.4766 249.125C43.25 248.852 42.9609 248.641 42.6094 248.492C42.2656 248.344 41.8633 248.27 41.4023 248.27C40.7773 248.27 40.293 248.367 39.9492 248.562C39.6133 248.758 39.332 248.98 39.1055 249.23ZM61.1953 246.969V249.922C61.1953 251.203 61.0586 252.309 60.7852 253.238C60.5117 254.16 60.1172 254.918 59.6016 255.512C59.0938 256.098 58.4883 256.531 57.7852 256.812C57.082 257.094 56.3008 257.234 55.4414 257.234C54.7539 257.234 54.1133 257.148 53.5195 256.977C52.9258 256.797 52.3906 256.52 51.9141 256.145C51.4453 255.77 51.0391 255.297 50.6953 254.727C50.3594 254.148 50.1016 253.461 49.9219 252.664C49.7422 251.867 49.6523 250.953 49.6523 249.922V246.969C49.6523 245.688 49.7891 244.59 50.0625 243.676C50.3438 242.754 50.7383 242 51.2461 241.414C51.7617 240.828 52.3711 240.398 53.0742 240.125C53.7773 239.844 54.5586 239.703 55.418 239.703C56.1055 239.703 56.7422 239.793 57.3281 239.973C57.9219 240.145 58.457 240.414 58.9336 240.781C59.4102 241.148 59.8164 241.621 60.1523 242.199C60.4883 242.77 60.7461 243.453 60.9258 244.25C61.1055 245.039 61.1953 245.945 61.1953 246.969ZM57.8086 250.367V246.512C57.8086 245.895 57.7734 245.355 57.7031 244.895C57.6406 244.434 57.543 244.043 57.4102 243.723C57.2773 243.395 57.1133 243.129 56.918 242.926C56.7227 242.723 56.5 242.574 56.25 242.48C56 242.387 55.7227 242.34 55.418 242.34C55.0352 242.34 54.6953 242.414 54.3984 242.562C54.1094 242.711 53.8633 242.949 53.6602 243.277C53.457 243.598 53.3008 244.027 53.1914 244.566C53.0898 245.098 53.0391 245.746 53.0391 246.512V250.367C53.0391 250.984 53.0703 251.527 53.1328 251.996C53.2031 252.465 53.3047 252.867 53.4375 253.203C53.5781 253.531 53.7422 253.801 53.9297 254.012C54.125 254.215 54.3477 254.363 54.5977 254.457C54.8555 254.551 55.1367 254.598 55.4414 254.598C55.8164 254.598 56.1484 254.523 56.4375 254.375C56.7344 254.219 56.9844 253.977 57.1875 253.648C57.3984 253.312 57.5547 252.875 57.6562 252.336C57.7578 251.797 57.8086 251.141 57.8086 250.367ZM71.918 250.918H62.9414V248.176H71.8359C72.5625 248.176 73.1406 248.062 73.5703 247.836C74.0078 247.609 74.3242 247.297 74.5195 246.898C74.7148 246.492 74.8125 246.031 74.8125 245.516C74.8125 245.008 74.707 244.543 74.4961 244.121C74.293 243.691 73.9766 243.348 73.5469 243.09C73.125 242.824 72.5859 242.691 71.9297 242.691H68.8242V257H65.3086V239.938H71.918C73.2617 239.938 74.4102 240.176 75.3633 240.652C76.3242 241.129 77.0625 241.785 77.5781 242.621C78.0938 243.457 78.3516 244.414 78.3516 245.492C78.3516 246.625 78.0859 247.598 77.5547 248.41C77.0312 249.223 76.2891 249.844 75.3281 250.273C74.375 250.703 73.2383 250.918 71.918 250.918ZM72.5625 251.879V254.621H62.9414V251.879H72.5625Z" fill="white"/>
</svg>
